<?xml version="1.0" encoding="UTF-8" standalone="no"?>
<!-- Created with Inkscape (http://www.inkscape.org/) -->

<svg
   xmlns:dc="http://purl.org/dc/elements/1.1/"
   xmlns:cc="http://creativecommons.org/ns#"
   xmlns:rdf="http://www.w3.org/1999/02/22-rdf-syntax-ns#"
   xmlns:svg="http://www.w3.org/2000/svg"
   xmlns="http://www.w3.org/2000/svg"
   xmlns:xlink="http://www.w3.org/1999/xlink"
   xmlns:sodipodi="http://sodipodi.sourceforge.net/DTD/sodipodi-0.dtd"
   xmlns:inkscape="http://www.inkscape.org/namespaces/inkscape"
   width="210mm"
   height="297mm"
   viewBox="0 0 210 297"
   version="1.1"
   id="svg4622"
   inkscape:version="0.92.3 (2405546, 2018-03-11)"
   sodipodi:docname="drawing.svg"
   inkscape:export-filename="C:\Users\saaga\Desktop\drawing.png"
   inkscape:export-xdpi="136.43822"
   inkscape:export-ydpi="136.43822">
  <defs
     id="defs4616">
    <clipPath
       id="clipPath6373"
       clipPathUnits="userSpaceOnUse">
      <path
         inkscape:connector-curvature="0"
         id="path6371"
         d="m 379.973,4300.6 c 0,0 7.687,1.19 22.101,3.42 7.203,1 16.086,2.23 26.528,3.67 10.449,1.58 21.988,4.47 34.894,6.83 6.395,1.28 13.133,2.64 20.195,4.06 7.067,1.8 14.457,3.67 22.168,5.63 7.637,1.92 15.586,3.92 23.836,6 8.164,2.46 16.621,5 25.36,7.64 34.863,10.23 73.418,24.12 116.164,39.77 42.765,15.38 89.789,33.37 143.875,47.67 53.765,14.19 115.426,24.38 180.539,21.14 16.317,-0.08 32.597,-1.96 48.957,-4.43 8.2,-1.18 16.43,-2.36 24.68,-3.54 8.05,-1.89 16.13,-3.78 24.23,-5.68 l 24.41,-5.87 6.12,-1.5 6.86,-2.04 10.68,-3.26 c 14.45,-4.65 27.93,-8.61 43.28,-14.2 15.13,-5.54 30.33,-11.1 45.58,-16.68 14.59,-5.71 29.27,-11.52 43.72,-17.63 28.2,-12.33 56.5,-24.71 84.8,-37.08 55.07,-25.25 107.84,-48.31 158.22,-63.82 6.3,-1.83 12.62,-3.99 18.88,-5.59 l 18.69,-4.16 c 12.42,-3.59 24.7,-4.73 36.98,-6.81 6.13,-1.22 12.26,-1.76 18.38,-1.93 l 18.32,-1.13 c 12.19,-0.74 24.39,0.4 36.56,0.3 24.38,1.58 48.55,5.14 72.59,10.45 6.07,1.3 11.85,2.08 18.14,3.76 6.61,1.7 13.18,3.39 19.72,5.08 13.02,3.31 25.88,6.58 38.57,9.81 50.47,12.62 99.22,25 146.13,33.99 46.81,8.89 92.98,13.83 134.05,9.92 41.17,-3.63 74.83,-15.73 100.06,-27.65 6.27,-3.07 12.21,-5.97 17.8,-8.7 5.31,-3.17 10.28,-6.13 14.92,-8.89 9.27,-5.36 16.83,-10.33 22.83,-14.58 11.92,-8.45 18.28,-12.96 18.28,-12.96 0,0 -7.57,1.75 -21.77,5.02 -6.95,1.86 -15.62,3.82 -25.87,5.54 -10.16,2.03 -21.78,4.06 -34.72,5.5 -25.84,3.08 -56.57,4.53 -89.98,-1.51 -33.46,-5.74 -70.08,-18.48 -111,-35.53 -40.97,-16.92 -85.91,-37.34 -135.02,-57.88 -12.25,-5.34 -24.63,-10.24 -37.14,-15.27 -6.25,-2.52 -12.55,-5.06 -18.88,-7.6 -6.6,-2.74 -14.21,-5.04 -21.36,-7.58 -28.68,-10.84 -59.92,-18.07 -92.27,-23.76 -65.02,-10.65 -136.43,-6.06 -201.56,11.13 -65.69,16.34 -125.16,42.68 -181.38,67.42 -27.47,12.49 -54.94,24.99 -82.31,37.43 -13.53,5.79 -26.89,11.62 -40.2,17.64 -12.95,5.42 -25.86,10.82 -38.72,16.2 -12.63,5.4 -27.76,10.4 -41.35,15.76 l -10.41,4.03 -2.6,1.01 -1.3,0.5 c 2.47,-0.82 0.36,-0.12 0.76,-0.26 l -0.58,0.18 -4.6,1.44 -18.35,5.81 -18.27,5.88 -18.44,3.92 -18.32,4.23 c -6.09,1.49 -12.305,1.8 -18.43,2.78 -49.031,7.19 -98.594,6.05 -147.766,0.6 -49.093,-5.23 -97.687,-14.25 -143.8,-20.94 -46.055,-6.72 -89.426,-11.69 -128.161,-12.66 -9.644,-0.24 -18.98,-0.48 -27.992,-0.7 -9.043,0.06 -17.793,0.54 -26.14,0.9 -8.317,0.37 -16.293,0.73 -23.918,1.08 -7.676,0.58 -15.059,1.71 -21.961,2.49 -13.789,1.8 -26.102,2.92 -36.391,5.22 -10.293,2.27 -19.047,4.21 -26.144,5.78 -14.188,3.39 -21.754,5.19 -21.754,5.19 z" />
    </clipPath>
    <linearGradient
       id="linearGradient6381"
       spreadMethod="pad"
       gradientTransform="matrix(1888.09,0,0,-1888.09,379.972,4279.93)"
       gradientUnits="userSpaceOnUse"
       y2="0"
       x2="1"
       y1="0"
       x1="0">
      <stop
         id="stop6375"
         offset="0"
         style="stop-opacity:1;stop-color:#2abaf1" />
      <stop
         id="stop6377"
         offset="0.994652"
         style="stop-opacity:1;stop-color:#0d8bb9" />
      <stop
         id="stop6379"
         offset="1"
         style="stop-opacity:1;stop-color:#0d8bb9" />
    </linearGradient>
    <clipPath
       id="clipPath6391"
       clipPathUnits="userSpaceOnUse">
      <path
         inkscape:connector-curvature="0"
         id="path6389"
         d="m 1324.02,4408.01 c 0,0 4.54,-0.23 12.89,-1.18 8.4,-0.79 20.65,-2.19 36.1,-4.41 15.54,-1.94 34.17,-5.52 55.51,-9.09 21.31,-3.74 45.12,-8.74 70.71,-13.73 25.59,-5.33 52.87,-10.28 80.7,-13.49 27.92,-3.13 56.07,-3.27 85.71,0.28 14.81,1.89 30.04,4.72 45.58,7.75 15.6,3.81 31.41,7.2 47.6,11.7 16.08,4.16 32.49,9.08 49,13.61 l 25.48,7.44 c 8.77,2.42 17.92,4.9 26.79,7.06 35.52,8.88 72.05,15.53 108.74,18.3 36.63,2.99 73.32,1.6 108.08,-3.54 34.74,-5.37 67.47,-14.37 96.93,-25.83 29.51,-11.35 56.13,-24.36 79.58,-37.89 47.01,-26.87 82.57,-53.72 107.12,-72.74 24.28,-19.45 37.54,-31.22 37.54,-31.22 0,0 -15.88,7.79 -43.69,21.42 -13.86,6.76 -30.63,15.01 -50.17,23.62 -19.41,8.81 -41.28,18.59 -65.57,27.61 -24.3,8.98 -50.66,17.88 -78.83,24.78 -28.13,7 -58.02,11.85 -88.9,13.54 -30.89,1.82 -62.76,-0.07 -95,-4.62 -32.23,-4.79 -64.82,-12.45 -97.22,-22.04 l -23.95,-7.44 -24.83,-8.17 c -17,-5.77 -33.85,-11.54 -51.3,-16.17 -34.43,-9.88 -69.9,-17.82 -106.13,-20.15 -36.08,-2.84 -72.16,0.77 -103.75,8.32 -31.72,7.41 -59.73,17.65 -84.57,27.83 -24.97,10.21 -47.15,20.34 -66.66,29.77 -19.46,9.68 -36.43,17.55 -50.19,25.09 -13.91,7.09 -24.75,12.96 -32.07,17.15 -7.38,4.02 -11.23,6.44 -11.23,6.44 z" />
    </clipPath>
    <linearGradient
       id="linearGradient6397"
       spreadMethod="pad"
       gradientTransform="matrix(1074.07,0,0,-1074.07,1324.02,4347.42)"
       gradientUnits="userSpaceOnUse"
       y2="0"
       x2="1"
       y1="0"
       x1="0">
      <stop
         id="stop6393"
         offset="0"
         style="stop-opacity:1;stop-color:#8cd9e7" />
      <stop
         id="stop6395"
         offset="1"
         style="stop-opacity:1;stop-color:#30bbe4" />
    </linearGradient>
    <clipPath
       id="clipPath6407"
       clipPathUnits="userSpaceOnUse">
      <path
         inkscape:connector-curvature="0"
         id="path6405"
         d="m 226.617,4324.12 c 193.336,-239.17 445.895,-144.35 702.52,-194.75 317.163,-62.3 451.933,-249.42 791.763,-44.42 -294.69,-94.96 -474.44,130.98 -747.138,176.08 -214.141,35.42 -472.844,-103.22 -747.145,63.09 z" />
    </clipPath>
    <linearGradient
       id="linearGradient6413"
       spreadMethod="pad"
       gradientTransform="matrix(1494.28,0,0,-1494.28,226.619,4157.81)"
       gradientUnits="userSpaceOnUse"
       y2="0"
       x2="1"
       y1="0"
       x1="0">
      <stop
         id="stop6409"
         offset="0"
         style="stop-opacity:1;stop-color:#176fba" />
      <stop
         id="stop6411"
         offset="1"
         style="stop-opacity:1;stop-color:#22467e" />
    </linearGradient>
    <clipPath
       id="clipPath6423"
       clipPathUnits="userSpaceOnUse">
      <path
         inkscape:connector-curvature="0"
         id="path6421"
         d="m 2838.67,4304.25 c 0,0 6.53,3.31 18.76,9.5 6.19,2.95 13.56,6.84 23.11,10.29 9.38,3.48 20.55,8.54 33.1,11.67 25.07,7.8 56.63,14.19 93.65,17.65 36.92,2.9 79.09,2.19 124.2,-3.18 45.11,-5.38 93,-15.28 141.98,-28.24 48.96,-13.03 99.14,-28.78 149.58,-45.23 24.95,-8.01 50.32,-16.14 76,-24.38 25.41,-7.73 50.94,-15.49 76.29,-22.52 50.92,-13.61 101.7,-25.63 151.78,-30.36 50.01,-5.87 99.22,-5.16 147.09,1.04 11.99,2.14 23.94,4.26 35.82,6.39 13.65,2.73 27.24,5.45 40.74,8.15 27.05,5.36 53.55,10.94 79.87,15.61 52.59,9.95 103.95,18.76 153.6,25.75 49.49,6.95 97.48,11.95 143.08,12.83 45.47,0.89 88.47,-2.51 125.49,-11.08 37.01,-9.12 67.19,-21.71 90.26,-34.34 23.07,-12.57 39.64,-24.38 50.66,-32.64 11.05,-8.22 16.69,-12.84 16.69,-12.84 0,0 -7.16,1.47 -20.59,4.22 -13.07,3.31 -32.87,6.39 -57.03,9.82 -24.3,3.09 -53.36,4.53 -85.55,2.43 -32.32,-2.62 -68.06,-9.6 -107.33,-20.13 -39.24,-10.26 -82.14,-24.04 -128.15,-39.1 -45.94,-14.73 -94.9,-30.97 -146.13,-46.63 -25.59,-8.18 -51.84,-15.72 -78.25,-23.4 -13.22,-3.85 -26.53,-7.72 -39.9,-11.61 -14.84,-3.71 -30.74,-7.33 -46.25,-10.78 -62.89,-12.6 -128.77,-13.75 -192.11,-7.23 -63.47,7.15 -124.04,22.36 -180.43,41.47 -28.43,9.11 -55.48,19.79 -81.9,30.55 -26.33,10.77 -51.87,21.68 -76.38,33.1 -49.24,22.27 -95.13,44.74 -138.49,64.69 -43.3,20.08 -84.01,37.88 -122.2,52.05 -38.15,14.35 -73.81,24.93 -106.26,32.44 -32.41,6.96 -61.59,11.08 -86.06,12.83 -24.21,1.49 -43.91,2.6 -57.71,1.58 -13.72,-0.24 -21.03,-0.37 -21.03,-0.37 z" />
    </clipPath>
    <linearGradient
       id="linearGradient6429"
       spreadMethod="pad"
       gradientTransform="matrix(1771.75,0,0,-1771.75,2838.67,4193.52)"
       gradientUnits="userSpaceOnUse"
       y2="0"
       x2="1"
       y1="0"
       x1="0">
      <stop
         id="stop6425"
         offset="0"
         style="stop-opacity:1;stop-color:#0f9bdd" />
      <stop
         id="stop6427"
         offset="1"
         style="stop-opacity:1;stop-color:#1969a4" />
    </linearGradient>
    <clipPath
       id="clipPath6439"
       clipPathUnits="userSpaceOnUse">
      <path
         inkscape:connector-curvature="0"
         id="path6437"
         d="m 3227.68,4144.66 c 0,0 -11.36,2.39 -30.73,7.68 -9.69,2.41 -21.41,6.42 -34.79,9.38 -13.4,3.11 -28.31,6.67 -44.26,10.98 -16.49,3.18 -34.13,6.98 -52.67,10.89 -18.84,2.7 -38.21,7.33 -58.67,9.61 -10.16,1.38 -20.49,2.78 -30.95,4.21 -10.49,0.98 -21.11,1.97 -31.81,2.96 l -16.08,1.57 -16.24,0.77 c -10.84,0.49 -21.71,1.4 -32.61,1.56 -21.81,0.35 -43.61,0.75 -65.14,-0.07 -21.53,-0.14 -42.72,-1.99 -63.33,-3.04 -20.56,-1.79 -40.55,-3.2 -59.5,-5.53 -19.02,-1.69 -36.95,-4.4 -53.73,-6.08 -16.57,-2.68 -32.05,-4.28 -45.71,-6.26 -13.58,-2.24 -25.71,-3.4 -35.59,-4.87 -19.78,-2.85 -31.4,-3.84 -31.4,-3.84 0,0 9.92,5.94 27.85,15.21 17.98,9.11 44.11,21.31 76.69,33.14 16.41,5.46 34.09,12.16 53.43,16.96 19.19,5.49 39.81,9.87 61.29,13.93 10.72,2.19 21.8,3.28 32.95,4.9 5.59,0.74 11.22,1.49 16.87,2.24 5.69,0.41 11.41,0.81 17.16,1.22 22.96,2.24 46.43,1.96 69.89,1.9 11.72,-0.37 23.43,-1.5 35.09,-2.22 11.68,-0.52 23.23,-2.11 34.65,-3.89 11.43,-1.67 22.78,-3.2 33.87,-5.39 11.02,-2.53 21.91,-5.02 32.62,-7.47 21.44,-4.64 41.36,-12.34 60.43,-18.29 18.77,-7.05 36.03,-14.94 51.95,-21.84 15.79,-7.71 29.83,-15.6 42.16,-22.42 12.61,-6.4 22.04,-14.07 30.54,-19.47 16.58,-11.33 25.77,-18.43 25.77,-18.43 z" />
    </clipPath>
    <linearGradient
       id="linearGradient6445"
       spreadMethod="pad"
       gradientTransform="matrix(703.214,0,0,-703.214,2524.47,4204.39)"
       gradientUnits="userSpaceOnUse"
       y2="0"
       x2="1"
       y1="0"
       x1="0">
      <stop
         id="stop6441"
         offset="0"
         style="stop-opacity:1;stop-color:#176fba" />
      <stop
         id="stop6443"
         offset="1"
         style="stop-opacity:1;stop-color:#22467e" />
    </linearGradient>
    <clipPath
       id="clipPath6455"
       clipPathUnits="userSpaceOnUse">
      <path
         inkscape:connector-curvature="0"
         id="path6453"
         d="m 4550.77,4258.16 c 0,0 -177.67,190.54 -390.13,186.66 -212.47,-3.86 -234.61,-68.44 -447.5,-72.32 -212.89,-3.88 -274.6,89.18 -566.58,12.18 248.69,-17.14 391.05,-138 616,-140.47 348.07,-3.83 482.09,163.81 788.21,13.95 z" />
    </clipPath>
    <linearGradient
       id="linearGradient6461"
       spreadMethod="pad"
       gradientTransform="matrix(1401.43,25.5285,25.5285,-1401.43,3147.57,4329.46)"
       gradientUnits="userSpaceOnUse"
       y2="0"
       x2="1"
       y1="0"
       x1="0">
      <stop
         id="stop6457"
         offset="0"
         style="stop-opacity:1;stop-color:#8cd9e7" />
      <stop
         id="stop6459"
         offset="1"
         style="stop-opacity:1;stop-color:#30bbe4" />
    </linearGradient>
    <clipPath
       id="clipPath6471"
       clipPathUnits="userSpaceOnUse">
      <path
         inkscape:connector-curvature="0"
         id="path6469"
         d="m 2555.6,982.629 c 0,0 5.03,2.062 14.46,5.922 9.48,3.5 23.27,9.398 41.05,15.399 17.88,5.95 38.98,14.59 64.39,21.3 25.86,6.01 55.5,12.29 88.39,18.57 32.82,4.76 68.66,7.15 107.01,9.35 38.21,-1.7 79.44,-0.82 120.97,-8.88 20.92,-3.05 42.4,-6.1 63.11,-11.98 20.75,-5.44 42.75,-9.86 63.01,-17.09 20.36,-6.95 41.73,-13.21 61.68,-20.931 19.85,-7.598 39.77,-15.23 59.69,-22.848 19.23,-7.679 38.47,-15.359 57.63,-23.011 18.92,-6.68 37.48,-14.18 56.05,-21.282 18.57,-5.968 36.92,-11.847 55.02,-18.218 18.12,-6.328 36.49,-9.489 54.28,-14.93 8.96,-2.34 17.78,-5.168 26.69,-7.07 8.97,-1.5 17.86,-3.149 26.66,-4.93 17.63,-3.328 34.88,-7.129 51.93,-9.969 17.26,-2.07 34.04,-4.09 50.27,-6.039 16.34,-2.004 32.15,-5.101 47.59,-5.363 30.79,-1.797 59.36,-3.938 84.96,-6.277 25.75,-0.922 48.21,-1.711 66.69,-2.372 18.61,-0.492 33.55,-2.019 43.67,-2.558 10.21,-0.891 15.66,-1.363 15.66,-1.363 0,0 -4.98,-2.079 -14.33,-5.977 -9.43,-3.551 -23.18,-9.512 -41.08,-15.621 -17.88,-6.172 -39.58,-14.609 -65.07,-21.961 -25.7,-6.141 -55.02,-12.551 -87.38,-19.031 -32.37,-6.11 -68.36,-7.649 -106.51,-11.008 -19.13,-0.699 -38.85,0.758 -59.11,1.121 -10.14,0.258 -20.4,0.68 -30.75,1.258 -10.31,0.859 -20.61,2.68 -31.08,4.012 -20.82,3.128 -42.49,5.437 -63.47,10.558 -21.03,4.949 -42.41,10.121 -63.64,16.02 -20.61,6.742 -41.55,13.199 -62.27,20.531 -20.02,7.598 -40.13,15.23 -60.24,22.859 -19.36,7.821 -38.72,15.641 -58.01,23.43 -18.84,7.379 -37.6,14.73 -56.22,22.031 -37.15,13.18 -73.09,26.739 -108.92,35.668 -35.39,11.492 -70.99,16.133 -104.63,24.153 -17.02,2.789 -33.81,4.207 -50.05,6.707 -16.24,2.062 -32.16,5.25 -47.29,6.191 -30.29,1.98 -58.55,4.32 -84.03,6.832 -25.72,1.457 -48.79,1.719 -67.5,2.719 -18.74,0.508 -33.65,2.097 -43.73,2.66 -10.14,0.918 -15.55,1.418 -15.55,1.418 z" />
    </clipPath>
    <linearGradient
       id="linearGradient6477"
       spreadMethod="pad"
       gradientTransform="matrix(1322.53,-19.1141,-19.1141,-1322.53,2554.74,923.19)"
       gradientUnits="userSpaceOnUse"
       y2="0"
       x2="1"
       y1="0"
       x1="0">
      <stop
         id="stop6473"
         offset="0"
         style="stop-opacity:1;stop-color:#0f9bdd" />
      <stop
         id="stop6475"
         offset="1"
         style="stop-opacity:1;stop-color:#1969a4" />
    </linearGradient>
    <clipPath
       id="clipPath6487"
       clipPathUnits="userSpaceOnUse">
      <path
         inkscape:connector-curvature="0"
         id="path6485"
         d="m 3131.71,1065.06 c 0,0 6.04,-0.32 17.37,-0.93 11.31,-0.88 27.9,-1.22 48.99,-4.1 42.4,-4.42 102.39,-14.83 172.95,-30.73 35.07,-7.73 73.07,-16.1 113.26,-24.95 39.95,-8.362 82.14,-16.12 125.63,-22.549 21.71,-3.719 43.98,-5.582 66.38,-8.379 22.54,-1.442 45.21,-4.051 68.22,-4.57 11.48,-0.52 23.01,-1.051 34.57,-1.582 l 34.83,-0.122 c 23.26,-0.57 46.66,0.582 70.04,1.411 47.06,1.839 94.84,5.421 141.77,8.41 47.04,3.32 93.6,6.011 139.18,7.769 22.76,0.942 45.34,1.473 67.5,1.602 22.24,-0.41 44.06,-1.141 65.43,-2.789 42.69,-3.11 83.53,-9.949 119.73,-22.141 36.43,-11.281 67.68,-27.941 92.7,-45.48 25.29,-17.289 44.28,-35.789 58.93,-51.461 14.64,-15.75 24.61,-29.278 31.29,-38.5 6.48,-9.34 9.94,-14.321 9.94,-14.321 0,0 -4.59,3.954 -13.18,11.352 -8.45,7.461 -21.43,17.789 -38.13,30.102 -16.94,12 -38.1,25.468 -63.51,37.617 -25.56,11.84 -55.32,22.281 -88.92,28.461 -33.58,6.172 -70.81,8.332 -110.63,7.929 -39.87,-0.949 -82.34,-4.429 -126.72,-8.437 -44.7,-4.543 -90.9,-9.242 -137.84,-14.012 -47.4,-4.308 -95.49,-8.359 -144.5,-9.949 -49.26,-1.879 -98.77,-1.301 -147.26,3.027 -24.31,1.274 -48.15,5.641 -71.79,8.321 -23.44,4.152 -46.76,7.39 -69.26,12.453 -11.28,2.386 -22.46,4.758 -33.53,7.109 -10.92,2.879 -21.74,5.731 -32.44,8.551 -21.45,5.43 -41.93,12.019 -62.06,17.808 -39.97,12.141 -77.03,25.54 -111.02,37.5 -33.92,12.04 -65.01,23.08 -92.57,32.87 -27.68,9.15 -51.72,17.78 -71.76,23.69 -19.94,6.39 -36.05,10.95 -46.92,14.04 -10.87,3.25 -16.67,4.98 -16.67,4.98 z" />
    </clipPath>
    <linearGradient
       id="linearGradient6495"
       spreadMethod="pad"
       gradientTransform="matrix(1478.7,0,0,-1478.7,3131.71,938.35)"
       gradientUnits="userSpaceOnUse"
       y2="0"
       x2="1"
       y1="0"
       x1="0">
      <stop
         id="stop6489"
         offset="0"
         style="stop-opacity:1;stop-color:#2abaf1" />
      <stop
         id="stop6491"
         offset="0.994652"
         style="stop-opacity:1;stop-color:#0d8bb9" />
      <stop
         id="stop6493"
         offset="1"
         style="stop-opacity:1;stop-color:#0d8bb9" />
    </linearGradient>
    <clipPath
       id="clipPath6505"
       clipPathUnits="userSpaceOnUse">
      <path
         inkscape:connector-curvature="0"
         id="path6503"
         d="m 3608.07,719.219 c 0,0 13.16,3.453 36.28,8.363 11.69,2.027 25.33,6.387 40.94,10.207 15.58,3.68 33.04,9.18 52.18,14.602 19.12,5.14 39.54,12.578 61.36,18.82 21.71,7.059 44.61,14.508 68.3,22.211 23.8,7.508 48.18,16.137 73.45,23.707 25.32,7.641 51.04,15.402 76.76,23.16 26.07,7.07 52.11,14.242 78.29,19.891 25.84,6.609 52.25,10.09 77.27,14.879 25.51,3.273 49.9,7.101 73.6,7.773 11.75,0.598 23.19,1.18 34.25,1.75 11.1,0.039 21.88,-0.613 32.14,-0.863 10.28,-0.5 20.08,-0.348 29.41,-1.36 9.31,-1.23 18.13,-2.41 26.42,-3.507 8.26,-1.153 15.96,-2.032 23.04,-3.231 7.07,-1.379 13.49,-3.211 19.3,-4.562 23.18,-5.778 36.03,-9.688 36.03,-9.688 0,0 -13.75,-0.871 -37.12,-1.332 -5.84,-0.168 -12.27,-0.039 -19.27,-0.5 -7.04,-0.809 -14.6,-1.258 -22.65,-1.957 -16.1,-1.121 -34.11,-2.75 -53.69,-5.773 -19.57,-2.207 -40.57,-6.149 -62.74,-10.188 -11.1,-1.762 -22.43,-4.09 -33.96,-7.012 -11.53,-2.867 -23.4,-4.988 -35.4,-7.629 -47.87,-11.992 -98.71,-25.691 -149.87,-40.21 -25.72,-7.079 -51.45,-14.168 -76.77,-21.141 -25.28,-7.34 -50.76,-13.039 -75.25,-19.238 -24.47,-6.239 -48.66,-10.84 -71.48,-15.309 -23.02,-4.09 -44.65,-7.973 -65.09,-9.844 -20.23,-2.558 -38.89,-4.179 -55.73,-4.437 -16.69,-0.731 -31.12,-1.16 -42.87,-0.192 -23.6,1.25 -37.13,2.61 -37.13,2.61 z" />
    </clipPath>
    <linearGradient
       id="linearGradient6511"
       spreadMethod="pad"
       gradientTransform="matrix(839.015,0,0,-839.015,3608.07,800.31)"
       gradientUnits="userSpaceOnUse"
       y2="0"
       x2="1"
       y1="0"
       x1="0">
      <stop
         id="stop6507"
         offset="0"
         style="stop-opacity:1;stop-color:#176fba" />
      <stop
         id="stop6509"
         offset="1"
         style="stop-opacity:1;stop-color:#22467e" />
    </linearGradient>
    <clipPath
       id="clipPath6521"
       clipPathUnits="userSpaceOnUse">
      <path
         inkscape:connector-curvature="0"
         id="path6519"
         d="m 4271.29,1126.76 c 14.91,99.44 -59.67,129.86 -59.67,129.86 14.17,-39.17 3.07,-90.7 -11.37,-113.64 13.28,214.37 -209.59,198.62 -245.3,166.97 79.17,-10 143.34,-60 105.42,-150.83 -60.37,-144.62 -566.25,-77.08 -811.25,-75.83 228.75,-43.75 458.33,-123.341 872.5,-67.92 316.08,42.29 478.33,-120.421 478.33,-120.421 -75.19,186.851 -235.02,225.831 -328.66,231.811 z" />
    </clipPath>
    <linearGradient
       id="linearGradient6527"
       spreadMethod="pad"
       gradientTransform="matrix(1350.83,0,0,-1350.83,3249.12,1111.69)"
       gradientUnits="userSpaceOnUse"
       y2="0"
       x2="1"
       y1="0"
       x1="0">
      <stop
         id="stop6523"
         offset="0"
         style="stop-opacity:1;stop-color:#8cd9e7" />
      <stop
         id="stop6525"
         offset="1"
         style="stop-opacity:1;stop-color:#30bbe4" />
    </linearGradient>
    <clipPath
       id="clipPath6537"
       clipPathUnits="userSpaceOnUse">
      <path
         inkscape:connector-curvature="0"
         id="path6535"
         d="m 871.617,935.789 c 182.503,-25 347.613,133.211 542.463,133.211 177.65,0 290.04,-101.129 498.75,-111.129 -179.34,-48.75 -268.57,17.27 -499.54,17.27 -188.19,0 -348.34,-126.02 -541.673,-39.352 z" />
    </clipPath>
    <linearGradient
       id="linearGradient6543"
       spreadMethod="pad"
       gradientTransform="matrix(1041.21,0,0,-1041.21,871.619,987.18)"
       gradientUnits="userSpaceOnUse"
       y2="0"
       x2="1"
       y1="0"
       x1="0">
      <stop
         id="stop6539"
         offset="0"
         style="stop-opacity:1;stop-color:#186bbc" />
      <stop
         id="stop6541"
         offset="1"
         style="stop-opacity:1;stop-color:#1e3f69" />
    </linearGradient>
    <clipPath
       id="clipPath6553"
       clipPathUnits="userSpaceOnUse">
      <path
         inkscape:connector-curvature="0"
         id="path6551"
         d="m 1178.39,861.969 c 0,0 -10.19,-4.008 -28.17,-10.43 -9.07,-3 -19.77,-7.449 -32.68,-10.82 -13,-3.239 -27.8,-6.918 -44.15,-10.457 -16.42,-2.571 -34.36,-5.192 -53.53,-6.571 -19.22,-0.152 -39.731,-1.601 -60.758,1.629 -10.579,0.95 -21.297,2.168 -31.914,4.668 -10.629,2.282 -21.735,3.844 -32.133,7.512 -21.36,6.059 -42.242,13.73 -62.821,21.691 -19.961,8.579 -39.918,17.149 -59.566,25.598 -19.559,7.82 -38.301,16.731 -57.023,23.391 -18.516,7.492 -36.856,13.011 -54.122,19.152 -17.632,4.988 -34.3,9.699 -49.687,14.047 -15.684,3.25 -30.07,6.641 -42.887,9.691 -12.84,2.809 -24.215,4.34 -33.539,6.2 -18.687,3.468 -29.469,5.812 -29.469,5.812 0,0 10.844,0.828 30,1.656 9.563,0.172 21.293,1.301 34.633,0.633 13.348,-0.652 28.481,-1.422 44.996,-2.723 16.379,-2.089 34.231,-4.539 52.93,-8.109 18.438,-4.488 38.387,-8.16 57.945,-15.039 39.895,-11.691 80.328,-29.68 119.914,-45.469 19.711,-8.082 39.391,-15.75 59.008,-21.742 9.735,-3.527 19.637,-5.367 29.281,-8.18 9.633,-2.929 19.36,-4.617 28.985,-6.058 19.121,-3.871 38.047,-4.692 56.037,-6.379 18.02,-0.231 35.29,-0.211 51.23,-0.063 15.78,1.422 30.44,2.301 43.55,3.09 13.09,1.199 24.62,3.071 34.08,4.09 18.96,2.242 29.86,3.18 29.86,3.18 z" />
    </clipPath>
    <linearGradient
       id="linearGradient6559"
       spreadMethod="pad"
       gradientTransform="matrix(672.454,0,0,-672.454,505.94,894.41)"
       gradientUnits="userSpaceOnUse"
       y2="0"
       x2="1"
       y1="0"
       x1="0">
      <stop
         id="stop6555"
         offset="0"
         style="stop-opacity:1;stop-color:#186bbc" />
      <stop
         id="stop6557"
         offset="1"
         style="stop-opacity:1;stop-color:#1e3f69" />
    </linearGradient>
    <clipPath
       id="clipPath6569"
       clipPathUnits="userSpaceOnUse">
      <path
         inkscape:connector-curvature="0"
         id="path6567"
         d="m 1521.77,1243.04 c 0,0 11.48,-5.44 31.26,-15.47 4.93,-2.53 10.39,-5.33 16.33,-8.38 5.93,-3.12 12.29,-6.51 19.42,-9.19 13.91,-5.85 29.62,-12.45 46.74,-19.65 8.83,-2.87 18.03,-5.85 27.54,-8.95 9.55,-2.88 18.98,-7.11 29.43,-9 10.26,-2.4 20.79,-4.86 31.56,-7.38 10.67,-2.77 22.02,-3.54 33.27,-5.51 22.47,-4.36 46.34,-4.1 70.26,-5.73 12.07,0.05 24.23,0.1 36.44,0.15 12.23,0.42 24.56,1.56 36.86,2.29 12.29,0.38 24.7,1.97 37.02,3.03 12.31,1.08 24.62,2.37 36.88,3.98 24.39,3.1 48.8,5.42 72.31,8.2 23.68,2.46 46.5,4.8 68.47,5.78 10.93,0.6 21.57,1.17 31.86,1.73 10.34,-0.01 20.33,-0.02 29.92,-0.04 19.12,0.51 36.71,-1.2 52.2,-2.34 7.75,-0.64 14.99,-0.95 21.66,-1.78 6.65,-1.05 12.76,-2.01 18.28,-2.88 22.02,-3.58 34.41,-5.97 34.41,-5.97 0,0 -12.78,-0.77 -34.82,-1.5 -5.49,-0.17 -11.58,-0.35 -18.2,-0.54 -6.61,-0.53 -13.76,-1.11 -21.4,-1.72 -15.25,-1.3 -32.37,-2.29 -51,-4.84 -9.3,-1.11 -18.98,-2.28 -29,-3.48 -10.01,-1.48 -20.36,-3 -30.99,-4.57 -21.24,-2.81 -43.65,-7.34 -66.91,-10.67 -23.35,-3.73 -47.34,-8.23 -72.21,-11.41 -12.33,-1.84 -24.89,-3.39 -37.6,-4.73 -12.69,-1.3 -25.3,-3.19 -38.23,-3.76 -12.89,-0.55 -25.73,-1.5 -38.61,-1.7 -12.92,0.16 -25.79,0.33 -38.55,0.5 -12.77,0.26 -25.45,2.2 -37.93,3.43 -12.53,0.94 -24.72,3.46 -36.68,6 -11.89,2.8 -23.92,4 -35,8.08 -11.15,3.65 -22.05,7.22 -32.67,10.69 -21.14,7.01 -39.72,17.26 -57.33,25.01 -17.07,9.23 -32.04,18.94 -45.36,27 -13.6,7.75 -23.31,17.11 -32.35,23.56 -17.48,13.67 -27.28,21.76 -27.28,21.76 z" />
    </clipPath>
    <linearGradient
       id="linearGradient6575"
       spreadMethod="pad"
       gradientTransform="matrix(772.443,56.1248,56.1248,-772.443,1527.27,1167.37)"
       gradientUnits="userSpaceOnUse"
       y2="0"
       x2="1"
       y1="0"
       x1="0">
      <stop
         id="stop6571"
         offset="0"
         style="stop-opacity:1;stop-color:#8cd9e7" />
      <stop
         id="stop6573"
         offset="1"
         style="stop-opacity:1;stop-color:#30bbe4" />
    </linearGradient>
    <clipPath
       id="clipPath6585"
       clipPathUnits="userSpaceOnUse">
      <path
         inkscape:connector-curvature="0"
         id="path6583"
         d="M 1621.03,1119.7 C 1237.87,1369.12 1022.87,999.121 409.535,1083.29 1087.87,823.242 1261.07,1218.6 1621.03,1119.7 Z" />
    </clipPath>
    <linearGradient
       id="linearGradient6591"
       spreadMethod="pad"
       gradientTransform="matrix(1211.5,0,0,-1211.5,409.536,1100.32)"
       gradientUnits="userSpaceOnUse"
       y2="0"
       x2="1"
       y1="0"
       x1="0">
      <stop
         id="stop6587"
         offset="0"
         style="stop-opacity:1;stop-color:#8cd9e7" />
      <stop
         id="stop6589"
         offset="1"
         style="stop-opacity:1;stop-color:#30bbe4" />
    </linearGradient>
    <clipPath
       id="clipPath6601"
       clipPathUnits="userSpaceOnUse">
      <path
         inkscape:connector-curvature="0"
         id="path6599"
         d="m 1964.37,1084.72 c 182.12,38.53 359.9,68.15 493.23,-64.77 0,0 -92.28,33.88 -213,12.92 -129.58,-22.5 -377.71,-119.061 -722.83,77.5 151.3,-32.12 317.66,-52.08 442.6,-25.65 z" />
    </clipPath>
    <linearGradient
       id="linearGradient6607"
       spreadMethod="pad"
       gradientTransform="matrix(647.674,0,0,-647.674,1701.77,1053.32)"
       gradientUnits="userSpaceOnUse"
       y2="0"
       x2="1"
       y1="0"
       x1="0">
      <stop
         id="stop6603"
         offset="0"
         style="stop-opacity:1;stop-color:#0f9bdd" />
      <stop
         id="stop6605"
         offset="1"
         style="stop-opacity:1;stop-color:#1969a4" />
    </linearGradient>
    <clipPath
       id="clipPath6617"
       clipPathUnits="userSpaceOnUse">
      <path
         inkscape:connector-curvature="0"
         id="path6615"
         d="m 543.488,3010.79 c 0,0 17.117,2.29 46.989,4.74 15.078,0.53 32.73,4.51 52.8,6.8 19.93,2.05 42.672,7.8 67.149,11.86 12.246,2.18 24.984,5.51 38.121,8.36 13.137,2.94 26.723,5.68 40.676,9.48 27.996,7 57.515,14.37 88.054,22 30.821,7.74 62.653,15.73 95.727,22.77 32.766,7.55 66.936,13.46 101.036,19.03 17.2,2.27 34.4,4.53 51.53,6.8 17.21,1.91 34.5,2.77 51.57,4.13 8.55,0.55 17.02,1.41 25.52,1.69 8.5,0.07 16.96,0.14 25.37,0.21 16.81,0.03 33.4,0.55 49.7,-0.06 16.3,-1.06 32.31,-1.84 47.95,-3.11 15.64,-1.14 30.92,-2.09 45.66,-4.63 29.48,-4.71 57.45,-7.62 82.66,-13.97 25.3,-5.79 48.29,-11.69 68.56,-16.94 20.15,-5.86 37.4,-12.27 51.63,-17.09 28.41,-9.92 44.28,-16.43 44.28,-16.43 0,0 -17.41,0.04 -47.21,1.58 -14.91,0.75 -32.93,1.78 -53.43,3.22 -20.68,0.36 -43.89,0.78 -68.98,1.88 -12.53,0.78 -25.61,0.86 -39.15,0.55 -13.47,0.01 -27.41,0.02 -41.73,0.03 -14.28,0.37 -28.94,-0.2 -43.9,-0.99 -14.95,-0.76 -30.19,-1.02 -45.67,-1.55 -30.93,-2.72 -62.84,-3.91 -95.13,-7.91 -16.15,-1.82 -32.43,-3.65 -48.77,-5.49 -16.32,-2.36 -32.71,-4.74 -49.1,-7.11 -16.42,-1.96 -32.85,-5.28 -49.21,-7.84 -16.33,-2.67 -32.76,-5.26 -49.03,-8.3 -32.472,-5.62 -64.883,-11.39 -96.359,-16.35 -31.621,-5.09 -62.403,-9.33 -92,-12.35 -14.668,-1.71 -29.168,-2.81 -43.211,-3.5 -14.059,-0.56 -27.438,-1.96 -40.551,-1.74 -26.234,0.39 -49.844,0.06 -71.305,2.82 -21.238,2.06 -39.644,3.61 -54.156,7.13 -29.363,5.99 -46.09,10.28 -46.09,10.28 z" />
    </clipPath>
    <linearGradient
       id="linearGradient6623"
       spreadMethod="pad"
       gradientTransform="matrix(1074.98,0,0,-1074.98,543.487,3059.72)"
       gradientUnits="userSpaceOnUse"
       y2="0"
       x2="1"
       y1="0"
       x1="0">
      <stop
         id="stop6619"
         offset="0"
         style="stop-opacity:1;stop-color:#176fba" />
      <stop
         id="stop6621"
         offset="1"
         style="stop-opacity:1;stop-color:#22467e" />
    </linearGradient>
    <clipPath
       id="clipPath6633"
       clipPathUnits="userSpaceOnUse">
      <path
         inkscape:connector-curvature="0"
         id="path6631"
         d="m 893.363,3140.1 c 0,0 4.782,2.87 13.75,8.25 9.082,5.06 22.164,13.16 39.27,22.12 17.176,8.9 38.722,19.19 63.797,30.47 25.3,9.96 53.89,21.91 86.31,31.51 8.1,2.49 16.36,5.04 24.78,7.64 8.55,2.18 17.27,4.4 26.13,6.65 8.92,2.16 17.99,4.36 27.2,6.59 9.33,1.77 18.8,3.56 28.41,5.38 38.47,7.44 79.87,11.45 122.9,13.58 21.49,0.29 43.49,1.06 65.6,-0.3 22.22,-0.53 44.53,-2.47 66.99,-4.86 44.84,-4.9 89.66,-13.38 133.47,-23.15 43.73,-10.38 86.28,-21.99 127.14,-33.95 40.99,-11.55 80.28,-23.35 118.17,-33.1 37.87,-9.85 74.23,-17.43 109.13,-22.87 34.87,-5.94 68.17,-8.07 99.38,-9.61 31.16,-0.81 60.19,-0.26 86.12,1.49 13.05,0.99 25.26,1.91 36.55,2.76 11.37,1.28 21.82,2.45 31.26,3.51 18.97,2.23 33.91,4.73 44.24,6.08 10.4,1.31 15.95,2 15.95,2 0,0 -4.71,-2.98 -13.53,-8.56 -9.06,-5.03 -21.77,-14.29 -39.44,-22.62 -8.83,-4.36 -18.62,-9.19 -29.27,-14.44 -10.76,-5.2 -22.88,-9.4 -35.73,-14.67 -25.89,-9.83 -56.11,-18.65 -89.99,-25.81 -33.89,-6.25 -71.55,-11.42 -111.4,-11.58 -39.79,-0.47 -81.9,2.12 -124.12,8.42 -42.24,6.17 -84.89,14.74 -126.92,24.72 -42.18,9.48 -83.77,20.59 -124.97,29.7 -41.08,9.84 -81.88,17.88 -121.99,24.89 -40.15,6.57 -79.73,10.97 -118.37,14.36 -38.62,2.11 -76.28,4.13 -112.25,3.18 -9.02,-0.06 -17.92,-0.13 -26.68,-0.19 -8.78,-0.43 -17.43,-0.85 -25.94,-1.26 -8.56,-0.33 -16.97,-0.66 -25.23,-0.97 -8.26,-0.66 -16.36,-1.31 -24.3,-1.94 -31.98,-1.71 -61.22,-5.69 -87.61,-7.8 -25.885,-3.62 -49.029,-5.46 -68.178,-8.09 -19.054,-3.1 -34.383,-4.47 -44.679,-5.88 -10.403,-1.08 -15.95,-1.65 -15.95,-1.65 z" />
    </clipPath>
    <linearGradient
       id="linearGradient6639"
       spreadMethod="pad"
       gradientTransform="matrix(1289.9568,-720.32542,-2089.5049,-280.88954,958.36419,3513.9468)"
       gradientUnits="userSpaceOnUse"
       y2="0"
       x2="1"
       y1="0"
       x1="0">
      <stop
         id="stop6635"
         offset="0"
         style="stop-opacity:1;stop-color:#0f9bdd" />
      <stop
         id="stop6637"
         offset="1"
         style="stop-opacity:1;stop-color:#1969a4" />
    </linearGradient>
    <clipPath
       id="clipPath6649"
       clipPathUnits="userSpaceOnUse">
      <path
         inkscape:connector-curvature="0"
         id="path6647"
         d="m 312.137,3095.04 c 0,0 4.496,-0.99 12.929,-2.85 4.204,-0.98 9.383,-2.19 15.473,-3.6 6.113,-1.4 13.184,-1.9 20.891,-3.19 3.843,-0.55 7.894,-1.14 12.136,-1.75 4.332,-0.2 8.868,-0.42 13.594,-0.64 4.68,-0.25 9.551,-0.51 14.602,-0.78 5.035,-0.22 10.308,0.23 15.691,0.31 5.367,0.2 10.906,0.41 16.613,0.61 5.672,0.69 11.512,1.4 17.504,2.12 11.934,0.97 24.383,3.9 37.289,6.08 25.707,6.16 53.153,13.79 81.653,24.68 28.515,10.69 57.98,23.78 88.523,37.98 30.567,14.1 61.578,30.33 93.723,46.23 32.015,16.09 64.855,32.3 98.23,48.02 33.426,15.51 67.328,30.62 101.645,43.64 33.992,13.73 68.917,24.08 102.687,33.77 34.01,9.09 67.42,16.21 99.6,20 31.99,4.74 62.68,5.95 90.81,5.8 28.15,-0.23 53.87,-2.18 76.36,-5.7 22.59,-2.26 41.79,-7.81 57.61,-10.98 15.75,-3.77 27.76,-8.26 36.04,-10.61 8.2,-2.66 12.58,-4.07 12.58,-4.07 0,0 -18.29,0.98 -50.31,2.69 -15.99,-0.14 -35.17,1.03 -57.15,-0.28 -21.93,-0.46 -46.54,-2.91 -73.08,-5.93 -26.54,-3.63 -55.01,-8.62 -84.71,-15.61 -7.41,-1.77 -14.92,-3.58 -22.53,-5.4 -7.52,-2.2 -15.13,-4.43 -22.83,-6.68 -15.39,-4.31 -30.98,-9.49 -46.84,-14.51 -63.09,-21.71 -128.624,-50.35 -194.132,-81.24 -33.004,-15.43 -66,-30.86 -98.484,-46.05 -32.645,-15.33 -65.738,-29.16 -98.078,-42.17 -32.18,-13.33 -64.77,-23.61 -96.043,-32.05 -31.117,-9.01 -62.051,-13.27 -90.356,-15.96 -28.543,-1.8 -54.843,-1.5 -77.722,2.5 -11.469,1.28 -22.028,3.56 -31.633,6.28 -4.793,1.25 -9.391,2.45 -13.785,3.59 -4.313,1.57 -8.422,3.06 -12.321,4.48 -15.785,5.1 -26.726,11.22 -34.437,15.15 -7.656,3.99 -11.742,6.12 -11.742,6.12 z" />
    </clipPath>
    <linearGradient
       id="linearGradient6657"
       spreadMethod="pad"
       gradientTransform="matrix(1116.18,0,0,-1116.18,312.136,3203.67)"
       gradientUnits="userSpaceOnUse"
       y2="0"
       x2="1"
       y1="0"
       x1="0">
      <stop
         id="stop6651"
         offset="0"
         style="stop-opacity:1;stop-color:#2abaf1" />
      <stop
         id="stop6653"
         offset="0.994652"
         style="stop-opacity:1;stop-color:#0d8bb9" />
      <stop
         id="stop6655"
         offset="1"
         style="stop-opacity:1;stop-color:#0d8bb9" />
    </linearGradient>
    <clipPath
       id="clipPath6667"
       clipPathUnits="userSpaceOnUse">
      <path
         inkscape:connector-curvature="0"
         id="path6665"
         d="m 632.223,3202.73 c 0,0 13.586,8.3 37.687,22.18 24.336,13.54 58.043,34.35 99.762,57.54 20.672,11.85 43.558,24.02 67.785,36.8 24.66,12.05 50.16,25.87 78.106,37.16 27.414,12.36 56.796,23.09 86.907,33.17 15.35,4.26 30.82,8.55 46.34,12.86 15.63,3.96 31.73,6.39 47.61,9.65 15.87,3.55 32.19,4.11 48.28,5.76 l 24.11,2.15 c 8.03,0.46 16.07,0.06 24.06,0.13 15.97,-0.32 31.88,0.42 47.44,-1.21 15.53,-1.78 30.87,-3.54 45.96,-5.27 7.56,-0.7 15,-1.75 22.24,-3.54 7.26,-1.58 14.46,-3.15 21.58,-4.7 14.16,-3.4 28.24,-5.8 41.47,-9.82 26.27,-8.64 51.41,-15.87 73.67,-24.89 22.17,-9.32 42.27,-18.28 60.01,-26.22 17.54,-8.4 32.21,-17.01 44.57,-23.42 24.5,-13.3 38.23,-21.24 38.23,-21.24 0,0 -14.99,5.56 -40.74,15.88 -12.93,5.02 -28.27,11.94 -46.44,18.33 -18.38,5.87 -39.04,12.49 -61.34,20.16 -11.02,4.26 -23.27,6.19 -35.49,9.56 -12.26,3.16 -24.94,6.44 -37.98,9.8 -13.05,3.19 -26.82,4.72 -40.66,7.24 -13.95,1.82 -27.89,5.86 -42.52,6.29 -14.52,1.17 -29.28,2.36 -44.22,3.56 -14.93,0.96 -30.1,-0.15 -45.34,0.12 -7.62,-0.15 -15.29,0.17 -22.95,-0.36 l -22.97,-2.33 c -15.33,-1.75 -30.84,-2.44 -45.99,-5.98 -15.22,-2.97 -30.61,-5.07 -45.65,-8.71 -14.97,-3.98 -29.89,-7.94 -44.69,-11.87 -29.13,-9.64 -58.126,-18.4 -85.302,-29.8 -27.516,-10.33 -53.52,-22.3 -78.485,-32.84 -24.734,-11.32 -48.117,-22.03 -69.703,-31.91 -43.097,-20.05 -79.621,-36.15 -105.023,-47.32 -25.543,-11 -40.324,-16.91 -40.324,-16.91 z" />
    </clipPath>
    <linearGradient
       id="linearGradient6673"
       spreadMethod="pad"
       gradientTransform="matrix(955.821,0,0,-955.821,632.224,3311.48)"
       gradientUnits="userSpaceOnUse"
       y2="0"
       x2="1"
       y1="0"
       x1="0">
      <stop
         id="stop6669"
         offset="0"
         style="stop-opacity:1;stop-color:#8cd9e7" />
      <stop
         id="stop6671"
         offset="1"
         style="stop-opacity:1;stop-color:#30bbe4" />
    </linearGradient>
    <clipPath
       id="clipPath6683"
       clipPathUnits="userSpaceOnUse">
      <path
         inkscape:connector-curvature="0"
         id="path6681"
         d="m 1949.33,3194.61 c 0,0 7.82,0.42 21.46,0.68 6.82,0.07 15.1,0.26 24.56,0.11 9.36,0.33 19.92,0.71 31.43,1.12 11.42,0.08 23.79,1.09 36.86,1.98 6.52,0.43 13.21,0.88 20.06,1.34 6.79,0.97 13.74,1.58 20.79,2.38 14.17,1.01 28.48,4.03 43.12,6.19 14.66,2.07 29.16,5.98 43.72,9.34 14.37,4.02 28.92,7.6 42.57,12.98 13.92,4.68 27.16,10.41 39.96,16.04 12.48,6.25 24.7,12.12 35.69,18.82 5.74,3.01 10.77,6.71 15.89,9.99 5.11,3.29 10.21,6.33 14.62,9.85 9.18,6.64 17.46,13 24.53,19.05 7.3,5.81 12.98,11.63 18.15,16.04 9.77,9.48 15.34,14.89 15.34,14.89 0,0 -0.94,-1.71 -2.7,-4.91 -1.86,-3.14 -4.19,-8.09 -7.97,-13.83 -3.97,-5.56 -8.16,-12.98 -14.44,-20.26 -3.04,-3.76 -6.29,-7.76 -9.71,-11.97 -3.76,-3.91 -7.73,-8.02 -11.86,-12.31 -8.41,-8.45 -18.08,-17.23 -29.14,-25.36 -5.57,-4 -11.15,-8.4 -17.18,-12.39 -6.08,-3.91 -12.52,-7.54 -18.96,-11.43 -6.51,-3.78 -13.48,-6.89 -20.38,-10.43 -6.83,-3.71 -14.1,-6.6 -21.51,-9.3 -14.61,-6.08 -30.01,-10.36 -45.35,-14.93 -15.61,-3.25 -31.18,-7.01 -46.71,-8.87 -15.5,-2.18 -30.83,-3.58 -45.66,-3.85 -7.41,-0.24 -14.69,-0.65 -21.81,-0.68 -7.11,0.34 -14.07,0.66 -20.84,0.98 -13.51,0.41 -26.26,1.45 -37.99,3.29 -11.72,1.5 -22.45,2.97 -31.77,4.72 -9.27,1.9 -17.32,3.87 -23.96,5.42 -13.26,3.2 -20.81,5.31 -20.81,5.31 z" />
    </clipPath>
    <linearGradient
       id="linearGradient6689"
       spreadMethod="pad"
       gradientTransform="matrix(448.755,0,0,-448.755,1949.33,3255.15)"
       gradientUnits="userSpaceOnUse"
       y2="0"
       x2="1"
       y1="0"
       x1="0">
      <stop
         id="stop6685"
         offset="0"
         style="stop-opacity:1;stop-color:#8cd9e7" />
      <stop
         id="stop6687"
         offset="1"
         style="stop-opacity:1;stop-color:#30bbe4" />
    </linearGradient>
    <clipPath
       id="clipPath6699"
       clipPathUnits="userSpaceOnUse">
      <path
         inkscape:connector-curvature="0"
         id="path6697"
         d="m 2999.72,3284.93 c 0,0 5.17,4.04 14.86,11.63 9.86,7.24 23.96,18.59 42.62,31.59 18.17,13.55 42.61,27.7 70.44,44.45 13.85,8.86 29.47,15.64 45.68,23.99 16.4,7.83 33.36,16.98 52.2,23.97 18.71,7.28 38.2,15.21 58.91,22.19 20.94,6.24 42.67,12.84 65.41,18.56 45.78,9.96 95.32,18.52 147.52,19.27 13.03,0.13 26.24,1.17 39.48,0.49 13.27,-0.82 26.63,-1.65 40.07,-2.48 13.52,-0.46 26.85,-2.86 40.39,-4.52 13.47,-2 27.16,-3.6 40.46,-6.84 54.25,-9.81 106.78,-28.18 157.47,-48.27 50.46,-20.97 98.35,-45.27 143.1,-70.8 45.08,-25.02 87.28,-51.18 127.62,-74.98 40.31,-23.62 78.73,-45.06 115.85,-62.25 37.01,-17.81 72.89,-29.68 107.13,-37.62 8.63,-1.85 17.09,-3.66 25.35,-5.43 8.41,-0.99 16.62,-1.96 24.62,-2.9 4.06,-0.54 8.07,-1.06 12.03,-1.58 3.96,-0.1 7.87,-0.19 11.73,-0.28 7.82,-0.22 15.42,-0.43 22.78,-0.64 29.48,0.76 56.17,2.67 77.89,6.86 22.12,2.87 39.12,7.83 51.09,10.32 12.07,2.57 18.51,3.95 18.51,3.95 0,0 -5.28,-3.89 -15.17,-11.17 -10.29,-6.56 -24.3,-19.07 -45.35,-29.06 -10.42,-5.16 -21.6,-12.37 -34.88,-17.55 -13.25,-5.24 -27.69,-11.46 -43.79,-16.13 -8.17,-2.07 -16.6,-4.21 -25.28,-6.42 -4.4,-1.05 -8.85,-2.13 -13.37,-3.22 -4.59,-0.64 -9.25,-1.29 -13.96,-1.96 -9.54,-1.19 -19.32,-2.42 -29.34,-3.68 -10.04,-0.51 -20.35,-0.57 -30.98,-0.83 -42.2,0.11 -88.54,6.12 -134.17,19.36 -45.86,12.84 -91.96,30.79 -137.13,51.38 -45.04,20.67 -89.69,43.03 -133.93,65.3 -44.49,21.88 -88.44,43.83 -133.11,61.59 -11.03,5 -22.17,9.26 -33.33,13.35 -11.16,4.06 -22.2,8.8 -33.47,12.01 -11.24,3.45 -22.38,7.18 -33.48,10.93 -11.23,3.02 -22.43,6.02 -33.59,9.02 -44.85,10.6 -89.5,19.27 -133.71,21.83 -44.1,4 -87.44,2.67 -128.98,0.53 -20.77,-1.41 -40.92,-4.41 -60.74,-6.02 -19.73,-2.29 -38.61,-6.27 -57.12,-8.81 -18.63,-2.11 -35.85,-7.25 -52.79,-10.33 -16.81,-3.51 -33.13,-6.35 -47.81,-10.44 -29.55,-8.14 -56.49,-12.71 -78.29,-19.74 -21.73,-6.69 -39.35,-10.79 -51.13,-14.1 -11.94,-2.95 -18.31,-4.52 -18.31,-4.52 z" />
    </clipPath>
    <linearGradient
       id="linearGradient6707"
       spreadMethod="pad"
       gradientTransform="matrix(1553.21,0,0,-1553.21,2999.72,3287.45)"
       gradientUnits="userSpaceOnUse"
       y2="0"
       x2="1"
       y1="0"
       x1="0">
      <stop
         id="stop6701"
         offset="0"
         style="stop-opacity:1;stop-color:#2abaf1" />
      <stop
         id="stop6703"
         offset="0.994652"
         style="stop-opacity:1;stop-color:#0d8bb9" />
      <stop
         id="stop6705"
         offset="1"
         style="stop-opacity:1;stop-color:#0d8bb9" />
    </linearGradient>
    <clipPath
       id="clipPath6717"
       clipPathUnits="userSpaceOnUse">
      <path
         inkscape:connector-curvature="0"
         id="path6715"
         d="m 3872.45,3444.99 c 0,0 16.89,-4.09 45.98,-13.03 14.51,-4.59 32.2,-9.98 52.12,-17.17 19.92,-7.15 42.47,-15.13 66.63,-24.81 24.12,-9.74 50.32,-20.15 77.62,-31.82 27.25,-11.75 55.89,-24.17 85.53,-36.36 29.39,-12.7 59.8,-25.22 90.83,-36.01 31.05,-10.59 62.49,-20.21 93.79,-25.03 31.23,-5.05 62.07,-5.25 90.83,1.02 7.25,1.41 14.25,3.59 21.23,5.78 3.5,1.05 6.84,2.59 10.28,3.8 l 5.13,1.92 0.32,0.12 c 0.47,0.21 -2.96,-1.43 -1.34,-0.66 l 0.7,0.35 1.4,0.69 2.8,1.38 c 1.56,0.84 4.43,2.03 4.89,2.58 0.8,0.62 1.61,1.19 2.46,1.72 1.6,0.69 4.08,3.34 6.17,4.81 4.06,3.93 8.01,8.2 11.44,13.13 13.98,19.8 19.23,46.78 17.34,70.89 -1.53,24.52 -11.47,46.21 -25.66,62.02 -14.38,15.92 -33.65,25.13 -52.25,30.11 -18.68,4.77 -36.55,6.07 -51.29,5.69 -14.74,-0.33 -26.65,-1.28 -34.67,-2.4 -8.13,-0.93 -12.46,-1.43 -12.46,-1.43 0,0 3.96,1.84 11.4,5.3 7.46,3.52 18.7,8.1 33.78,12.19 15,4.59 34.22,7.6 57.17,6.64 22.86,-0.64 50.06,-8.48 74.45,-27.28 24.36,-18.87 42.01,-49.64 48.65,-83.87 6.34,-34.3 2,-72.93 -18.35,-108.31 -5.12,-8.81 -11.6,-17.18 -19.22,-24.78 -4.29,-3.69 -7.42,-7.24 -12.88,-10.91 l -7.8,-5.29 c -2.88,-1.92 -3.95,-2.23 -6.01,-3.43 l -2.75,-1.48 -1.38,-0.74 -0.69,-0.37 -2.46,-1.15 -6.53,-2.7 c -4.39,-1.74 -8.68,-3.74 -13.23,-5.16 -9.04,-2.99 -18.18,-5.85 -27.6,-7.83 -37.58,-8.86 -77.05,-7.83 -113.73,-1.44 -36.78,6.63 -71.51,17.82 -103.94,31.22 -32.46,13.37 -63.15,28.06 -92.38,42.68 -57.95,30.29 -110.35,59.95 -155.4,85.34 -90.55,50.45 -150.92,84.08 -150.92,84.08 z" />
    </clipPath>
    <linearGradient
       id="linearGradient6723"
       spreadMethod="pad"
       gradientTransform="matrix(737.964,0,0,-737.964,3872.45,3341.63)"
       gradientUnits="userSpaceOnUse"
       y2="0"
       x2="1"
       y1="0"
       x1="0">
      <stop
         id="stop6719"
         offset="0"
         style="stop-opacity:1;stop-color:#8cd9e7" />
      <stop
         id="stop6721"
         offset="1"
         style="stop-opacity:1;stop-color:#30bbe4" />
    </linearGradient>
    <clipPath
       id="clipPath6733"
       clipPathUnits="userSpaceOnUse">
      <path
         inkscape:connector-curvature="0"
         id="path6731"
         d="m 4085.24,3051.1 c -69.87,69.27 -387.77,264.43 -685.67,263.98 -291.67,-0.45 -452.98,-174.37 -782.95,-147.42 293.26,-154.01 562.72,-50.99 768.83,-8.54 366.78,75.53 699.79,-108.02 699.79,-108.02 z" />
    </clipPath>
    <linearGradient
       id="linearGradient6739"
       spreadMethod="pad"
       gradientTransform="matrix(1470.66,-38.062,-38.062,-1470.66,2617.77,3212.33)"
       gradientUnits="userSpaceOnUse"
       y2="0"
       x2="1"
       y1="0"
       x1="0">
      <stop
         id="stop6735"
         offset="0"
         style="stop-opacity:1;stop-color:#176fba" />
      <stop
         id="stop6737"
         offset="1"
         style="stop-opacity:1;stop-color:#22467e" />
    </linearGradient>
    <clipPath
       id="clipPath6749"
       clipPathUnits="userSpaceOnUse">
      <path
         inkscape:connector-curvature="0"
         id="path6747"
         d="m 3751.17,2484.39 c -82.05,-180.27 -518.63,-313.67 -721.05,34.1 -99.75,-256.87 -409.13,-216.25 -513.15,-149.19 50.48,-110.18 379.31,-211.02 516.17,22.32 114.73,-276.92 542.65,-299.17 707.94,-92.59 202.02,-250.88 550.57,-170.66 631.37,-34.08 -172.08,-85.83 -497.5,-25 -621.28,219.44 z" />
    </clipPath>
    <linearGradient
       id="linearGradient6757"
       spreadMethod="pad"
       gradientTransform="matrix(1855.48,0,0,-1855.48,2516.97,2327.34)"
       gradientUnits="userSpaceOnUse"
       y2="0"
       x2="1"
       y1="0"
       x1="0">
      <stop
         id="stop6751"
         offset="0"
         style="stop-opacity:1;stop-color:#2abaf1" />
      <stop
         id="stop6753"
         offset="0.994652"
         style="stop-opacity:1;stop-color:#0d8bb9" />
      <stop
         id="stop6755"
         offset="1"
         style="stop-opacity:1;stop-color:#0d8bb9" />
    </linearGradient>
    <clipPath
       id="clipPath6767"
       clipPathUnits="userSpaceOnUse">
      <path
         inkscape:connector-curvature="0"
         id="path6765"
         d="m 4481.71,2280.15 c -5.61,-8.18 -11.71,-16 -16.96,-24.04 -5.75,-7.82 -11.88,-15.31 -17.7,-22.81 l -18.83,-21.33 c -6.4,-6.88 -13.14,-13.41 -19.56,-20 l -20.32,-18.63 -21.2,-17.09 -21.92,-15.59 c -15.08,-9.62 -29.99,-18.94 -45.73,-26.69 -15.72,-7.71 -31.4,-15.07 -47.72,-20.78 -16.27,-5.72 -32.46,-11.28 -49.16,-14.99 -8.26,-2.11 -16.59,-3.82 -24.99,-5.24 -8.28,-1.79 -16.66,-3.12 -25.1,-4.03 -8.35,-1.31 -16.79,-1.97 -25.24,-2.44 -8.4,-0.74 -16.83,-1.04 -25.25,-1.22 -16.82,-0.53 -33.68,0.17 -50.4,1.84 -16.73,1.24 -33.41,3.5 -49.87,6.81 -16.45,3.31 -32.81,7.21 -48.93,12 -16.13,4.72 -32.08,10.31 -47.56,17.04 -7.93,2.9 -15.66,6.34 -23.3,10.02 -7.74,3.42 -15.39,7.1 -22.8,11.29 -15.09,7.8 -29.64,16.77 -44.19,25.82 -14.53,9.14 -28.34,19.47 -42.16,29.9 l -43.39,32.73 -40.05,-27.24 c -10.28,-7 -20.68,-13.87 -31.44,-20.12 -10.79,-6.19 -21.77,-12.08 -33.06,-17.33 -22.45,-10.79 -45.8,-19.97 -69.99,-26.77 -12.07,-3.47 -24.28,-6.76 -36.71,-9.16 -12.38,-2.62 -24.96,-4.6 -37.64,-5.93 -25.34,-3.26 -51.17,-3.99 -77.17,-2.85 -26.04,1.02 -52.16,4.62 -78.28,9.94 -26,5.64 -52.05,13.07 -77.48,23.09 -25.49,9.89 -50.67,21.86 -75.14,36.04 -12.16,7.2 -23.91,15.16 -36,23.13 -11.71,8.04 -23.31,17.18 -35.01,26.24 6.67,-13.23 14.26,-25.66 22.67,-38.35 8.29,-12.48 17.68,-24.2 27.52,-35.71 9.97,-11.37 20.46,-22.43 31.54,-33.05 11.31,-10.3 23.11,-20.19 35.44,-29.55 24.85,-18.37 51.69,-34.7 80.29,-47.84 28.48,-13.48 58.67,-23.7 89.71,-31.31 15.51,-3.94 31.34,-6.64 47.28,-8.8 15.93,-2.22 32.04,-3.71 48.22,-4.29 16.18,-0.56 32.45,-0.31 48.68,0.76 16.24,0.97 32.54,2.57 48.65,5.35 32.23,5.45 64.17,13.69 95.03,25.08 14.43,5.38 28.55,11.54 42.49,18.09 4.8,-3.69 9.5,-7.48 14.45,-11 17.84,-12.92 36.46,-24.97 56.02,-35.43 9.59,-5.58 19.49,-10.61 29.57,-15.33 9.95,-4.97 20.03,-9.65 30.42,-13.74 20.61,-8.45 41.87,-15.5 63.42,-21.4 21.49,-6.11 43.47,-10.7 65.68,-13.61 22.16,-3.12 44.54,-4.94 66.94,-5.28 22.4,-0.13 44.81,1.06 67.02,3.8 11.11,1.33 22.2,2.61 33.14,5.12 10.98,2.09 21.89,4.44 32.65,7.51 10.83,2.68 21.52,5.84 32.06,9.54 10.64,3.27 20.95,7.55 31.18,11.93 20.47,8.6 40.44,18.43 59.26,30.09 18.87,11.49 36.95,24.17 53.8,38.21 16.75,14.17 32.54,29.25 46.9,45.5 7.06,8.24 13.71,16.79 20.46,25.11 6.33,8.71 12.3,17.66 18.2,26.5 5.38,9.28 10.92,18.32 15.94,27.62 4.55,9.62 9.25,19.02 13.45,28.6 3.91,9.76 7.52,19.58 10.83,29.39 2.9,10.04 5.97,19.86 8.54,29.77 4.7,20.04 7.63,40.25 8.98,60.36 -5.7,-8.47 -10.99,-16.91 -16.18,-25.25 z" />
    </clipPath>
    <linearGradient
       id="linearGradient6773"
       spreadMethod="pad"
       gradientTransform="matrix(1396.43,0,0,-1396.43,3101.46,2115.87)"
       gradientUnits="userSpaceOnUse"
       y2="0"
       x2="1"
       y1="0"
       x1="0">
      <stop
         id="stop6769"
         offset="0"
         style="stop-opacity:1;stop-color:#0f9bdd" />
      <stop
         id="stop6771"
         offset="1"
         style="stop-opacity:1;stop-color:#1969a4" />
    </linearGradient>
    <clipPath
       id="clipPath6783"
       clipPathUnits="userSpaceOnUse">
      <path
         inkscape:connector-curvature="0"
         id="path6781"
         d="m 3709.14,1967.03 c -11.37,-11.42 -23.74,-22.21 -37.86,-31.23 -13.87,-8.9 -28.44,-17.32 -43.86,-23.57 -7.65,-3.4 -15.43,-6.44 -23.36,-9.04 -7.86,-2.92 -15.85,-5.39 -23.93,-7.57 -8.03,-2.55 -16.21,-4.22 -24.42,-5.85 -8.19,-1.84 -16.44,-3.23 -24.73,-4.41 -8.28,-1.41 -16.59,-2.45 -24.93,-3.21 -8.35,-0.95 -16.71,-1.8 -25.08,-2.01 -16.76,-0.87 -33.55,-0.87 -50.32,-0.15 -16.77,0.71 -33.49,2.3 -50.19,4.32 -16.67,2.23 -33.22,5.27 -49.74,8.65 -16.47,3.61 -32.76,8.07 -48.95,12.99 -16.16,5.05 -32.17,10.68 -47.87,17.29 -31.5,12.91 -61.96,28.98 -90.68,48.45 -14.46,9.55 -28.24,20.36 -41.37,32.07 -13.2,11.56 -25.85,24.1 -37.22,37.93 -11.54,13.64 -21.88,28.54 -31.1,44.2 -4.79,7.7 -8.31,16.28 -12.44,24.38 -3.67,8.39 -6.7,17.12 -9.98,25.66 l 45.01,-20.02 c -9.48,-3.47 -16.86,-5.72 -25.28,-7.98 -8.18,-2.22 -16.37,-4.09 -24.57,-5.89 -16.39,-3.52 -32.95,-6.06 -49.62,-7.63 -33.26,-3.35 -67.17,-2.84 -100.32,2.95 -8.29,1.39 -16.52,3.15 -24.68,5.14 -8.13,2.16 -16.25,4.2 -24.17,7.04 -7.98,2.56 -15.67,6.04 -23.33,9.34 -7.52,3.71 -15.09,7.15 -22.21,11.5 -7.26,4.01 -14.19,8.59 -20.86,13.43 -6.51,5.09 -13.06,10.01 -18.99,15.64 -6.13,5.37 -11.83,11.15 -17.04,17.35 -5.52,5.83 -10.08,12.58 -14.85,18.87 6.87,-4.21 12.97,-9.09 19.91,-12.84 6.71,-4.03 13.5,-7.75 20.39,-11.17 6.75,-3.6 13.95,-6.38 20.91,-9.28 7.2,-2.49 14.11,-5.34 21.36,-7.35 14.3,-4.41 28.89,-7.39 43.56,-9.16 7.23,-1.25 14.64,-1.72 21.94,-2.34 7.34,-0.45 14.68,-0.7 22.04,-0.61 29.4,0.41 58.63,3.91 87.39,10.14 14.36,3.16 28.58,6.93 42.6,11.16 6.97,2.22 13.93,4.47 20.72,7 6.52,2.47 14.04,5.19 19.14,7.54 l 29.1,13.39 15.92,-33.41 c 2.95,-6.21 5.49,-12.53 8.6,-18.63 3.55,-5.93 6.53,-12.07 10.39,-17.85 7.48,-11.64 15.82,-22.89 25.36,-33.34 9.46,-10.48 19.48,-20.72 30.55,-30.01 10.82,-9.52 22.56,-18.23 34.62,-26.57 11.98,-8.45 24.64,-16.17 37.66,-23.32 12.94,-7.29 26.29,-14.08 39.93,-20.31 13.66,-6.22 27.63,-11.85 41.71,-17.33 14.16,-5.33 28.6,-9.88 43.1,-14.44 29.12,-8.62 58.93,-15.44 89.12,-20.21 15.09,-2.42 30.3,-4.52 45.56,-5.64 15.25,-1.48 30.62,-2.5 45.96,-2.49 15.39,-0.33 30.76,0.49 46.1,1.74 7.73,0.45 15.43,1.17 23.05,2.35 7.72,0.85 15.35,2.14 22.91,3.79 15.24,2.94 30.45,6.63 45.32,11.8 7.66,2.25 14.51,5.6 22.1,8.34 7.42,3.07 14.52,7.09 21.92,10.41 z" />
    </clipPath>
    <linearGradient
       id="linearGradient6789"
       spreadMethod="pad"
       gradientTransform="matrix(1018.94,0,0,-1018.94,2690.2,2037.57)"
       gradientUnits="userSpaceOnUse"
       y2="0"
       x2="1"
       y1="0"
       x1="0">
      <stop
         id="stop6785"
         offset="0"
         style="stop-opacity:1;stop-color:#186bbc" />
      <stop
         id="stop6787"
         offset="1"
         style="stop-opacity:1;stop-color:#1e3f69" />
    </linearGradient>
    <clipPath
       id="clipPath6799"
       clipPathUnits="userSpaceOnUse">
      <path
         inkscape:connector-curvature="0"
         id="path6797"
         d="m 4299.93,1927.13 c 0,0 10.6,6.28 29.32,16.14 8.89,5.72 19.59,11.53 31.37,19.45 11.97,7.57 24.56,17.23 38.03,27.45 6.41,5.46 13.1,11.14 20.01,17.02 6.4,6.41 13.33,12.52 19.91,19.31 12.86,13.89 26.08,28.54 37.47,45.25 6.11,8.04 11.13,16.99 16.79,25.57 4.73,9.16 10.33,17.95 14.48,27.55 9.19,18.74 16.38,38.7 21.66,58.99 5.84,20.19 8.74,41.03 10,61.44 1.03,20.42 0.54,40.68 -2.93,59.74 -3.42,18.98 -8.04,37.39 -15.46,53.61 -7.32,16.16 -15.54,31.43 -25.71,43.79 -9.6,12.92 -20.47,23.41 -30.74,32.53 -10.75,8.27 -20.55,15.87 -29.46,20.9 -8.64,5.67 -16.09,9.09 -21.09,11.81 -5.06,2.74 -7.76,4.21 -7.76,4.21 0,0 3.05,-0.04 8.77,-0.1 5.66,-0.46 14.47,0.23 25.07,-2.15 10.88,-1.48 23.95,-4.7 38.62,-10.29 14.37,-6.03 30.83,-13.89 46.38,-26.33 16.14,-11.81 30.88,-28.16 44.22,-47.1 13.33,-19.06 23.38,-41.65 30.72,-65.8 7.41,-24.19 10.9,-50.26 10.8,-76.55 0.26,-26.33 -3.39,-52.97 -10.25,-78.59 -7.1,-25.53 -16.52,-50.48 -29.51,-72.97 -12.43,-22.74 -27.44,-43.52 -44.12,-61.41 -16.14,-18.41 -34.61,-33.26 -52.37,-46.34 -9.15,-6.21 -18.29,-11.84 -27.09,-17.18 -9.24,-4.67 -18.01,-9.3 -26.57,-13.35 -8.88,-3.49 -17.23,-6.96 -25.28,-9.88 -8.16,-2.7 -16.08,-4.69 -23.33,-6.82 -14.43,-4.45 -28.11,-5.72 -38.52,-7.74 -10.51,-1.28 -18.96,-1.34 -24.63,-1.81 -5.74,-0.23 -8.8,-0.35 -8.8,-0.35 z" />
    </clipPath>
    <linearGradient
       id="linearGradient6805"
       spreadMethod="pad"
       gradientTransform="matrix(310.482,0,0,-310.482,4299.93,2199.51)"
       gradientUnits="userSpaceOnUse"
       y2="0"
       x2="1"
       y1="0"
       x1="0">
      <stop
         id="stop6801"
         offset="0"
         style="stop-opacity:1;stop-color:#176fba" />
      <stop
         id="stop6803"
         offset="1"
         style="stop-opacity:1;stop-color:#22467e" />
    </linearGradient>
    <clipPath
       id="clipPath6815"
       clipPathUnits="userSpaceOnUse">
      <path
         inkscape:connector-curvature="0"
         id="path6813"
         d="m 2199.59,1956.54 c 0,0 -4.2,-4.06 -12.07,-11.67 -3.99,-3.71 -8.91,-8.29 -14.7,-13.67 -5.67,-5.53 -12.36,-11.53 -20.96,-17.49 -8.32,-6.26 -17.84,-12.98 -28.38,-20.41 -10.74,-6.68 -22.81,-13.09 -35.77,-20.42 -13.02,-7.16 -27.98,-12.34 -43.53,-19.16 -15.89,-5.49 -33.12,-10.63 -51.39,-14.95 -36.74,-8.1 -77.95,-11.14 -121.12,-9.11 -42.95,2.78 -87.18,10.88 -130.77,22.58 -43.76,11.52 -86.58,26.59 -128.63,42.29 -42.18,15.32 -83.46,32.19 -124.37,46.5 -40.67,15.05 -81.16,27.66 -120.89,38.75 -39.89,9.85 -79.14,17.92 -117.73,22.75 -38.55,3.89 -76.36,6.67 -112.6,5.19 -9.11,-0.18 -18.1,-0.37 -26.95,-0.54 -8.87,-0.76 -17.6,-1.51 -26.19,-2.24 -8.68,-0.65 -17.22,-1.29 -25.6,-1.92 -8.35,-1.18 -16.56,-2.35 -24.59,-3.49 -32.56,-3.41 -62.037,-10.45 -89.065,-14.78 -26.828,-6.16 -50.219,-11.54 -69.484,-15.96 -38.528,-10.23 -61.762,-15.17 -61.762,-15.17 0,0 17.324,15.36 49.777,40.65 16.403,12.3 37.481,25.41 61.84,40.94 25.309,13.41 53.801,29.8 87.384,42.69 8.29,3.53 16.85,6.89 25.61,10.3 8.97,2.88 18.1,5.82 27.39,8.8 9.33,3.01 18.88,5.91 28.65,8.63 9.93,2.24 20.01,4.51 30.23,6.81 41.01,9.27 85.7,13.5 132.06,14.18 23.11,-0.39 46.8,-0.86 70.37,-3.82 23.87,-1.75 47.33,-6.28 71.14,-10.56 47.17,-9.57 93.43,-23.81 138.1,-39.5 44.44,-16.45 86.98,-34.36 127.6,-52.41 40.73,-17.72 79.46,-35.61 116.57,-50.45 37.18,-14.81 72.73,-27.46 106.94,-36.23 34.11,-8.11 66.94,-13.28 97.95,-14.47 15.49,-0.67 30.44,0.08 44.93,0.41 14.27,1.6 28.24,2.34 41.25,4.44 13.13,2.34 25.43,4.53 36.79,6.55 11.28,2.84 21.64,5.44 30.99,7.8 19.2,4.39 34.53,10.53 44.89,13.41 10.49,3.1 16.09,4.75 16.09,4.75 z" />
    </clipPath>
    <linearGradient
       id="linearGradient6821"
       spreadMethod="pad"
       gradientTransform="matrix(1386.55,0,0,-1386.55,813.038,1977.83)"
       gradientUnits="userSpaceOnUse"
       y2="0"
       x2="1"
       y1="0"
       x1="0">
      <stop
         id="stop6817"
         offset="0"
         style="stop-opacity:1;stop-color:#0f9bdd" />
      <stop
         id="stop6819"
         offset="1"
         style="stop-opacity:1;stop-color:#1969a4" />
    </linearGradient>
    <clipPath
       id="clipPath6831"
       clipPathUnits="userSpaceOnUse">
      <path
         inkscape:connector-curvature="0"
         id="path6829"
         d="m 398.938,2267.42 c 0,0 -2.106,-9.44 -6.747,-25.5 -2.289,-8 -5.578,-17.82 -7.414,-28.85 -1.093,-5.45 -2.257,-11.26 -3.488,-17.38 -1.238,-6.03 -2.957,-12.16 -3.434,-19.09 -1.136,-13.65 -4.386,-27.9 -4.089,-43.33 -0.313,-7.59 -0.633,-15.4 -0.961,-23.38 0.472,-7.91 0.957,-15.99 1.449,-24.21 0.234,-4.08 0.476,-8.19 0.715,-12.34 l 1.992,-12.34 c 1.605,-8.22 2.047,-16.72 4.277,-24.92 2.164,-8.21 4.5,-16.42 6.446,-24.75 2.324,-8.22 5.937,-16.03 8.781,-24.1 2.469,-8.25 6.594,-15.74 10.461,-23.33 3.941,-7.53 7.113,-15.49 12.156,-22.26 4.746,-6.93 8.852,-14.28 13.656,-21.01 5.242,-6.37 10.461,-12.67 15.407,-19.11 4.714,-6.68 11.257,-11.34 16.484,-17.22 5.441,-5.67 10.824,-11.24 16.937,-15.61 5.883,-4.79 11.606,-9.44 17.141,-13.95 5.668,-4.4 11.758,-7.74 17.34,-11.51 11.121,-7.74 22.211,-13.34 32.262,-18.3 4.98,-2.59 9.738,-4.84 14.074,-7.3 4.558,-1.79 8.746,-3.44 12.527,-4.93 15.258,-6.01 24.254,-10.14 24.254,-10.14 0,0 -9.453,-0.46 -26.5,-0.07 -4.285,0.13 -9.031,0.27 -14.195,0.43 -5.074,0.7 -10.496,1.85 -16.387,2.89 -5.926,1.12 -12.23,2.3 -18.883,3.55 -6.683,1.32 -13.113,4.37 -20.23,6.69 -6.961,2.65 -14.571,4.9 -21.934,8.3 -7.172,3.86 -14.586,7.85 -22.203,11.96 -7.918,3.83 -14.93,9.35 -22.254,14.89 -7.16,5.69 -15.25,10.82 -21.801,17.79 -6.699,6.88 -13.515,13.87 -20.41,20.94 -6.476,7.46 -12.066,15.8 -18.039,23.96 -6.305,7.98 -10.949,17.05 -15.691,26.12 -4.785,9.05 -9.813,18.05 -12.985,27.83 -3.328,9.69 -7.347,19.18 -9.976,29.01 -2.367,9.91 -4.328,19.87 -6.426,29.68 -2.184,9.81 -2.117,19.85 -3.07,29.59 -0.352,4.87 -0.7,9.72 -1.043,14.53 -0.024,4.82 0.453,9.6 0.66,14.33 0.605,9.46 0.965,18.74 1.863,27.73 1.735,8.88 3.43,17.56 5.078,26.01 2.567,16.98 9.578,31.89 14.16,45.84 4.547,13.98 12.329,25.91 17.536,36.48 5.093,10.9 11.57,18.62 16.421,25.46 9.887,13.48 16.083,20.92 16.083,20.92 z" />
    </clipPath>
    <linearGradient
       id="linearGradient6837"
       spreadMethod="pad"
       gradientTransform="matrix(272.029,0,0,-272.029,327.136,2034.88)"
       gradientUnits="userSpaceOnUse"
       y2="0"
       x2="1"
       y1="0"
       x1="0">
      <stop
         id="stop6833"
         offset="0"
         style="stop-opacity:1;stop-color:#186bbc" />
      <stop
         id="stop6835"
         offset="1"
         style="stop-opacity:1;stop-color:#1e3f69" />
    </linearGradient>
    <clipPath
       id="clipPath6847"
       clipPathUnits="userSpaceOnUse">
      <path
         inkscape:connector-curvature="0"
         id="path6845"
         d="m 2287.32,2159.92 c -14.03,-8.21 -30.55,-19.11 -50.01,-28.75 -9.58,-5.32 -19.84,-10.44 -30.93,-14.4 -10.92,-4.62 -22.23,-9.7 -34.4,-12.87 -23.83,-8.79 -50.23,-12.91 -77.74,-16.24 -27.77,-1.58 -56.9,-1.22 -87.23,3.72 -30.35,5.03 -61.69,13.56 -93.8,24.07 -32.08,11.44 -64.31,26.01 -98.07,39.05 -222.27,85.87 -442.27,88.37 -566.84,5.87 0,0 224.57,27.5 447.18,-94.07 32.35,-17.67 66.6,-33.01 101.15,-48.26 34.59,-14.48 69.78,-28.18 105.25,-37.44 35.5,-9.45 71.19,-14.29 105.77,-14.55 34.65,-0.25 68.04,6.44 98.89,16.05 30.65,11.58 58.99,25.23 83.37,43.63 12.39,8.4 23.79,17.76 34.28,27.57 10.69,9.19 20.29,19.15 29.1,28.94 18.19,17.98 31.97,38.28 43.71,53.45 11.58,15.58 19.49,30.21 25.33,39 5.59,9.3 8.57,14.26 8.57,14.26 0,0 -16.27,-10.61 -43.58,-29.03 z" />
    </clipPath>
    <linearGradient
       id="linearGradient6853"
       spreadMethod="pad"
       gradientTransform="matrix(1082.6,0,0,-1082.6,1248.3,2093.33)"
       gradientUnits="userSpaceOnUse"
       y2="0"
       x2="1"
       y1="0"
       x1="0">
      <stop
         id="stop6849"
         offset="0"
         style="stop-opacity:1;stop-color:#8cd9e7" />
      <stop
         id="stop6851"
         offset="1"
         style="stop-opacity:1;stop-color:#30bbe4" />
    </linearGradient>
    <clipPath
       id="clipPath6863"
       clipPathUnits="userSpaceOnUse">
      <path
         inkscape:connector-curvature="0"
         id="path6861"
         d="m 923.559,1802.33 c 0,0 9.8,4.42 27.179,11.12 8.875,2.99 18.883,8.15 30.375,13.08 11.5,4.69 24.117,11.75 38.067,18.24 13.78,7.3 28.71,15.2 44.5,23.57 15.9,8.28 32.78,17.87 51.53,26.04 9.31,4.27 18.77,8.54 29.02,11.97 10.08,3.65 20.21,7.63 31.06,10.01 21.23,6.26 43.63,9.35 65.85,11.67 l 33.36,1.33 c 11.03,0.08 21.9,-1.09 32.72,-1.62 l 16.14,-1.03 c 5.26,-0.78 10.49,-1.56 15.69,-2.34 10.36,-1.66 20.59,-3.31 30.65,-4.93 19.99,-3.59 38.68,-9.34 56.59,-13.82 17.9,-4.44 34.09,-10.98 49.24,-16.16 30.41,-10.03 54.34,-22.2 71.28,-29.95 16.86,-8.01 26.24,-13.17 26.24,-13.17 0,0 -10.79,0.79 -29.23,3.15 -9.21,1.23 -20.41,2.57 -33.04,4.69 -12.63,2.21 -27.04,3.75 -42.54,6 -15.57,1.86 -32.25,4.95 -49.88,7.03 -17.68,1.73 -36.23,4.36 -55.28,6.11 -19.04,0.85 -38.74,3.87 -58.41,3.51 -9.85,0.09 -19.83,0.52 -29.72,0.44 l -29.56,-1.59 c -19.55,-1.82 -38.97,-4.26 -57.76,-8.69 -18.89,-4.06 -37.24,-9.59 -55.29,-15.8 -18.01,-6.06 -35.71,-12.56 -52.96,-18.64 -16.93,-6.36 -33.91,-11.43 -49.39,-15.8 -15.75,-4.11 -30.041,-7.72 -43.381,-9.46 -13.101,-2.23 -24.418,-3.81 -33.695,-4 -18.601,-0.99 -29.355,-0.96 -29.355,-0.96 z" />
    </clipPath>
    <linearGradient
       id="linearGradient6869"
       spreadMethod="pad"
       gradientTransform="matrix(649.49,0,0,-649.49,923.557,1865.85)"
       gradientUnits="userSpaceOnUse"
       y2="0"
       x2="1"
       y1="0"
       x1="0">
      <stop
         id="stop6865"
         offset="0"
         style="stop-opacity:1;stop-color:#186bbc" />
      <stop
         id="stop6867"
         offset="1"
         style="stop-opacity:1;stop-color:#1e3f69" />
    </linearGradient>
    <clipPath
       id="clipPath6879"
       clipPathUnits="userSpaceOnUse">
      <path
         inkscape:connector-curvature="0"
         id="path6877"
         d="m 1195.56,1951.76 c -151.19,40.45 -338.232,-32.08 -437.013,-32.08 -98.781,0 -205.879,54.57 -186.231,229.9 19.434,173.39 208.903,256.39 344.817,173.64 0,0 -25.797,113.51 -228.219,100.56 -166.457,-10.65 -282.297,-135.91 -282.297,-336.83 0,-186.23 173.797,-274.12 321.16,-274.12 147.364,0 350.963,138.93 467.783,138.93 z" />
    </clipPath>
    <linearGradient
       id="linearGradient6885"
       spreadMethod="pad"
       gradientTransform="matrix(788.938,0,0,-788.938,406.619,2118.82)"
       gradientUnits="userSpaceOnUse"
       y2="0"
       x2="1"
       y1="0"
       x1="0">
      <stop
         id="stop6881"
         offset="0"
         style="stop-opacity:1;stop-color:#176fba" />
      <stop
         id="stop6883"
         offset="1"
         style="stop-opacity:1;stop-color:#22467e" />
    </linearGradient>
    <clipPath
       id="clipPath6879-7"
       clipPathUnits="userSpaceOnUse">
      <path
         inkscape:connector-curvature="0"
         id="path6877-7"
         d="m 1195.56,1951.76 c -151.19,40.45 -338.232,-32.08 -437.013,-32.08 -98.781,0 -205.879,54.57 -186.231,229.9 19.434,173.39 208.903,256.39 344.817,173.64 0,0 -25.797,113.51 -228.219,100.56 -166.457,-10.65 -282.297,-135.91 -282.297,-336.83 0,-186.23 173.797,-274.12 321.16,-274.12 147.364,0 350.963,138.93 467.783,138.93 z" />
    </clipPath>
    <filter
       inkscape:collect="always"
       style="color-interpolation-filters:sRGB"
       id="filter7505"
       x="-0.0044122357"
       width="1.0088245"
       y="-0.0052624878"
       height="1.010525">
      <feGaussianBlur
         inkscape:collect="always"
         stdDeviation="0.37589421"
         id="feGaussianBlur7507" />
    </filter>
    <radialGradient
       inkscape:collect="always"
       xlink:href="#linearGradient6757"
       id="radialGradient7515"
       cx="116.17084"
       cy="339.71136"
       fx="116.17084"
       fy="339.71136"
       r="103.13446"
       gradientTransform="matrix(1,0,0,0.83984483,0,54.40653)"
       gradientUnits="userSpaceOnUse" />
    <clipPath
       id="clipPath7991"
       clipPathUnits="userSpaceOnUse">
      <path
         inkscape:connector-curvature="0"
         id="path7989"
         d="m 2199.59,1956.54 c 0,0 -4.2,-4.06 -12.07,-11.67 -3.99,-3.71 -8.91,-8.29 -14.7,-13.67 -5.67,-5.53 -12.36,-11.53 -20.96,-17.49 -8.32,-6.26 -17.84,-12.98 -28.38,-20.41 -10.74,-6.68 -22.81,-13.09 -35.77,-20.42 -13.02,-7.16 -27.98,-12.34 -43.53,-19.16 -15.89,-5.49 -33.12,-10.63 -51.39,-14.95 -36.74,-8.1 -77.95,-11.14 -121.12,-9.11 -42.95,2.78 -87.18,10.88 -130.77,22.58 -43.76,11.52 -86.58,26.59 -128.63,42.29 -42.18,15.32 -83.46,32.19 -124.37,46.5 -40.67,15.05 -81.16,27.66 -120.89,38.75 -39.89,9.85 -79.14,17.92 -117.73,22.75 -38.55,3.89 -76.36,6.67 -112.6,5.19 -9.11,-0.18 -18.1,-0.37 -26.95,-0.54 -8.87,-0.76 -17.6,-1.51 -26.19,-2.24 -8.68,-0.65 -17.22,-1.29 -25.6,-1.92 -8.35,-1.18 -16.56,-2.35 -24.59,-3.49 -32.56,-3.41 -62.037,-10.45 -89.065,-14.78 -26.828,-6.16 -50.219,-11.54 -69.484,-15.96 -38.528,-10.23 -61.762,-15.17 -61.762,-15.17 0,0 17.324,15.36 49.777,40.65 16.403,12.3 37.481,25.41 61.84,40.94 25.309,13.41 53.801,29.8 87.384,42.69 8.29,3.53 16.85,6.89 25.61,10.3 8.97,2.88 18.1,5.82 27.39,8.8 9.33,3.01 18.88,5.91 28.65,8.63 9.93,2.24 20.01,4.51 30.23,6.81 41.01,9.27 85.7,13.5 132.06,14.18 23.11,-0.39 46.8,-0.86 70.37,-3.82 23.87,-1.75 47.33,-6.28 71.14,-10.56 47.17,-9.57 93.43,-23.81 138.1,-39.5 44.44,-16.45 86.98,-34.36 127.6,-52.41 40.73,-17.72 79.46,-35.61 116.57,-50.45 37.18,-14.81 72.73,-27.46 106.94,-36.23 34.11,-8.11 66.94,-13.28 97.95,-14.47 15.49,-0.67 30.44,0.08 44.93,0.41 14.27,1.6 28.24,2.34 41.25,4.44 13.13,2.34 25.43,4.53 36.79,6.55 11.28,2.84 21.64,5.44 30.99,7.8 19.2,4.39 34.53,10.53 44.89,13.41 10.49,3.1 16.09,4.75 16.09,4.75 z" />
    </clipPath>
    <linearGradient
       id="linearGradient7997"
       spreadMethod="pad"
       gradientTransform="matrix(1386.55,0,0,-1386.55,813.038,1977.83)"
       gradientUnits="userSpaceOnUse"
       y2="0"
       x2="1"
       y1="0"
       x1="0">
      <stop
         id="stop7993"
         offset="0"
         style="stop-opacity:1;stop-color:#0f9bdd" />
      <stop
         id="stop7995"
         offset="1"
         style="stop-opacity:1;stop-color:#1969a4" />
    </linearGradient>
  </defs>
  <sodipodi:namedview
     id="base"
     pagecolor="#ffffff"
     bordercolor="#666666"
     borderopacity="1.0"
     inkscape:pageopacity="0.0"
     inkscape:pageshadow="2"
     inkscape:zoom="1.4142136"
     inkscape:cx="77.581883"
     inkscape:cy="548.06609"
     inkscape:document-units="px"
     inkscape:current-layer="g6361"
     showgrid="false"
     showborder="false"
     inkscape:snap-global="true"
     inkscape:window-width="1827"
     inkscape:window-height="1051"
     inkscape:window-x="84"
     inkscape:window-y="-9"
     inkscape:window-maximized="1" />
  <metadata
     id="metadata4619">
    <rdf:RDF>
      <cc:Work
         rdf:about="">
        <dc:format>image/svg+xml</dc:format>
        <dc:type
           rdf:resource="http://purl.org/dc/dcmitype/StillImage" />
        <dc:title />
      </cc:Work>
    </rdf:RDF>
  </metadata>
  <g
     inkscape:label="Layer 1"
     inkscape:groupmode="layer"
     id="layer1">
    <g
       transform="matrix(0.35277777,0,0,-0.35277777,-93.561706,227.31378)"
       inkscape:label="ink_ext_XXXXXX"
       id="g6361">
      <g
         id="g243"
         transform="translate(6.3639614,-37.123107)"
         inkscape:export-filename="D:\Downloads\bitmap.png"
         inkscape:export-xdpi="36.838459"
         inkscape:export-ydpi="36.838459">
        <g
           id="g6825"
           transform="matrix(-0.56169691,0,0,0.28544923,580.96497,-283.99129)">
          <g
             clip-path="url(#clipPath6831)"
             id="g6827">
            <path
               inkscape:connector-curvature="0"
               id="path6839"
               style="fill:url(#linearGradient6837);fill-opacity:1;fill-rule:nonzero;stroke:none"
               d="m 398.938,2267.42 c 0,0 -2.106,-9.44 -6.747,-25.5 -2.289,-8 -5.578,-17.82 -7.414,-28.85 -1.093,-5.45 -2.257,-11.26 -3.488,-17.38 -1.238,-6.03 -2.957,-12.16 -3.434,-19.09 -1.136,-13.65 -4.386,-27.9 -4.089,-43.33 -0.313,-7.59 -0.633,-15.4 -0.961,-23.38 0.472,-7.91 0.957,-15.99 1.449,-24.21 0.234,-4.08 0.476,-8.19 0.715,-12.34 l 1.992,-12.34 c 1.605,-8.22 2.047,-16.72 4.277,-24.92 2.164,-8.21 4.5,-16.42 6.446,-24.75 2.324,-8.22 5.937,-16.03 8.781,-24.1 2.469,-8.25 6.594,-15.74 10.461,-23.33 3.941,-7.53 7.113,-15.49 12.156,-22.26 4.746,-6.93 8.852,-14.28 13.656,-21.01 5.242,-6.37 10.461,-12.67 15.407,-19.11 4.714,-6.68 11.257,-11.34 16.484,-17.22 5.441,-5.67 10.824,-11.24 16.937,-15.61 5.883,-4.79 11.606,-9.44 17.141,-13.95 5.668,-4.4 11.758,-7.74 17.34,-11.51 11.121,-7.74 22.211,-13.34 32.262,-18.3 4.98,-2.59 9.738,-4.84 14.074,-7.3 4.558,-1.79 8.746,-3.44 12.527,-4.93 15.258,-6.01 24.254,-10.14 24.254,-10.14 0,0 -9.453,-0.46 -26.5,-0.07 -4.285,0.13 -9.031,0.27 -14.195,0.43 -5.074,0.7 -10.496,1.85 -16.387,2.89 -5.926,1.12 -12.23,2.3 -18.883,3.55 -6.683,1.32 -13.113,4.37 -20.23,6.69 -6.961,2.65 -14.571,4.9 -21.934,8.3 -7.172,3.86 -14.586,7.85 -22.203,11.96 -7.918,3.83 -14.93,9.35 -22.254,14.89 -7.16,5.69 -15.25,10.82 -21.801,17.79 -6.699,6.88 -13.515,13.87 -20.41,20.94 -6.476,7.46 -12.066,15.8 -18.039,23.96 -6.305,7.98 -10.949,17.05 -15.691,26.12 -4.785,9.05 -9.813,18.05 -12.985,27.83 -3.328,9.69 -7.347,19.18 -9.976,29.01 -2.367,9.91 -4.328,19.87 -6.426,29.68 -2.184,9.81 -2.117,19.85 -3.07,29.59 -0.352,4.87 -0.7,9.72 -1.043,14.53 -0.024,4.82 0.453,9.6 0.66,14.33 0.605,9.46 0.965,18.74 1.863,27.73 1.735,8.88 3.43,17.56 5.078,26.01 2.567,16.98 9.578,31.89 14.16,45.84 4.547,13.98 12.329,25.91 17.536,36.48 5.093,10.9 11.57,18.62 16.421,25.46 9.887,13.48 16.083,20.92 16.083,20.92" />
          </g>
        </g>
        <g
           id="g6841"
           transform="matrix(0.21286771,0.07902794,-0.08306112,0.2297788,282.17993,-343.5258)">
          <g
             clip-path="url(#clipPath6847)"
             id="g6843"
             transform="matrix(0.2270813,0.84103142,-1.216214,0.18509986,3779.7508,340.89002)"
             style="fill:#65cce6;fill-opacity:1">
            <g
               transform="matrix(-0.09069934,-0.35749164,0.46425037,-0.03642462,-163.39221,3467.9136)"
               id="g7985">
              <g
                 clip-path="url(#clipPath7991)"
                 id="g7987">
                <path
                   inkscape:connector-curvature="0"
                   id="path7999"
                   style="fill:url(#linearGradient7997);fill-opacity:1;fill-rule:nonzero;stroke:none"
                   d="m 2199.59,1956.54 c 0,0 -4.2,-4.06 -12.07,-11.67 -3.99,-3.71 -8.91,-8.29 -14.7,-13.67 -5.67,-5.53 -12.36,-11.53 -20.96,-17.49 -8.32,-6.26 -17.84,-12.98 -28.38,-20.41 -10.74,-6.68 -22.81,-13.09 -35.77,-20.42 -13.02,-7.16 -27.98,-12.34 -43.53,-19.16 -15.89,-5.49 -33.12,-10.63 -51.39,-14.95 -36.74,-8.1 -77.95,-11.14 -121.12,-9.11 -42.95,2.78 -87.18,10.88 -130.77,22.58 -43.76,11.52 -86.58,26.59 -128.63,42.29 -42.18,15.32 -83.46,32.19 -124.37,46.5 -40.67,15.05 -81.16,27.66 -120.89,38.75 -39.89,9.85 -79.14,17.92 -117.73,22.75 -38.55,3.89 -76.36,6.67 -112.6,5.19 -9.11,-0.18 -18.1,-0.37 -26.95,-0.54 -8.87,-0.76 -17.6,-1.51 -26.19,-2.24 -8.68,-0.65 -17.22,-1.29 -25.6,-1.92 -8.35,-1.18 -16.56,-2.35 -24.59,-3.49 -32.56,-3.41 -62.037,-10.45 -89.065,-14.78 -26.828,-6.16 -50.219,-11.54 -69.484,-15.96 -38.528,-10.23 -61.762,-15.17 -61.762,-15.17 0,0 17.324,15.36 49.777,40.65 16.403,12.3 37.481,25.41 61.84,40.94 25.309,13.41 53.801,29.8 87.384,42.69 8.29,3.53 16.85,6.89 25.61,10.3 8.97,2.88 18.1,5.82 27.39,8.8 9.33,3.01 18.88,5.91 28.65,8.63 9.93,2.24 20.01,4.51 30.23,6.81 41.01,9.27 85.7,13.5 132.06,14.18 23.11,-0.39 46.8,-0.86 70.37,-3.82 23.87,-1.75 47.33,-6.28 71.14,-10.56 47.17,-9.57 93.43,-23.81 138.1,-39.5 44.44,-16.45 86.98,-34.36 127.6,-52.41 40.73,-17.72 79.46,-35.61 116.57,-50.45 37.18,-14.81 72.73,-27.46 106.94,-36.23 34.11,-8.11 66.94,-13.28 97.95,-14.47 15.49,-0.67 30.44,0.08 44.93,0.41 14.27,1.6 28.24,2.34 41.25,4.44 13.13,2.34 25.43,4.53 36.79,6.55 11.28,2.84 21.64,5.44 30.99,7.8 19.2,4.39 34.53,10.53 44.89,13.41 10.49,3.1 16.09,4.75 16.09,4.75" />
              </g>
            </g>
          </g>
          <path
             style="opacity:0.56000001;fill:url(#radialGradient7515);fill-opacity:1;filter:url(#filter7505)"
             d="m 115.46444,424.71786 c -3.49242,-0.52977 -19.802152,-3.40943 -36.243847,-6.39923 -26.826553,-4.87822 -52.322669,-8.82187 -63.406307,-9.80748 -2.982784,-0.26524 -2.474176,-0.40347 2,-0.54355 3.3,-0.10333 12.450961,-0.84415 20.335468,-1.64627 84.462806,-8.59273 147.224766,-46.3383 154.137736,-92.69973 2.75654,-18.48655 -4.90149,-39.41546 -20.32698,-55.55235 -4.95236,-5.18077 -3.86205,-5.42349 3.15004,-0.70127 17.14568,11.54657 31.00326,29.82129 37.87768,49.95127 5.64445,16.52831 7.07437,42.3555 3.34958,60.5 -3.80675,18.54375 -14.37787,34.80631 -28.80968,44.32068 -15.02919,9.90819 -25.79874,12.83539 -48.71384,13.24058 -9.35,0.16532 -19.85743,-0.13287 -23.34985,-0.66265 z"
             id="path7281"
             inkscape:connector-curvature="0"
             transform="matrix(3.1064267,-1.0683949,-1.1229204,-2.8778022,1190.3337,3426.3832)" />
          <path
             style="opacity:0.56000001;fill:#65cce6;fill-opacity:1"
             d="m 123.81429,425.72635 c -3.2714,-0.38792 -0.59207,-0.64721 7.75,-0.75 7.0125,-0.0864 12.7501,0.1804 12.75022,0.5929 2.6e-4,0.89344 -13.42299,0.99631 -20.50022,0.1571 z"
             id="path7517"
             inkscape:connector-curvature="0"
             transform="matrix(3.1064267,-1.0683949,-1.1229204,-2.8778022,1190.3337,3426.3832)" />
        </g>
        <g
           id="g6873"
           transform="matrix(-0.33444204,0,0,0.31937013,604.90152,-393.93075)">
          <g
             clip-path="url(#clipPath6879)"
             id="g6875">
            <path
               inkscape:connector-curvature="0"
               id="path6887"
               style="fill:url(#linearGradient6885);fill-opacity:1;fill-rule:nonzero;stroke:none"
               d="m 1195.56,1951.76 c -151.19,40.45 -338.232,-32.08 -437.013,-32.08 -98.781,0 -205.879,54.57 -186.231,229.9 19.434,173.39 208.903,256.39 344.817,173.64 0,0 -25.797,113.51 -228.219,100.56 -166.457,-10.65 -282.297,-135.91 -282.297,-336.83 0,-186.23 173.797,-274.12 321.16,-274.12 147.364,0 350.963,138.93 467.783,138.93" />
          </g>
        </g>
      </g>
    </g>
  </g>
</svg>
