<?xml version="1.0" encoding="UTF-8" standalone="no"?>
<svg
   xmlns:dc="http://purl.org/dc/elements/1.1/"
   xmlns:cc="http://creativecommons.org/ns#"
   xmlns:rdf="http://www.w3.org/1999/02/22-rdf-syntax-ns#"
   xmlns:svg="http://www.w3.org/2000/svg"
   xmlns="http://www.w3.org/2000/svg"
   xmlns:sodipodi="http://sodipodi.sourceforge.net/DTD/sodipodi-0.dtd"
   xmlns:inkscape="http://www.inkscape.org/namespaces/inkscape"
   width="16"
   height="14"
   viewBox="0 0 16 14"
   version="1.1"
   id="svg4"
   sodipodi:docname="bed.svg"
   inkscape:version="0.92.3 (2405546, 2018-03-11)">
  <metadata
     id="metadata10">
    <rdf:RDF>
      <cc:Work
         rdf:about="">
        <dc:format>image/svg+xml</dc:format>
        <dc:type
           rdf:resource="http://purl.org/dc/dcmitype/StillImage" />
      </cc:Work>
    </rdf:RDF>
  </metadata>
  <defs
     id="defs8" />
  <sodipodi:namedview
     pagecolor="#ffffff"
     bordercolor="#666666"
     borderopacity="1"
     objecttolerance="10"
     gridtolerance="10"
     guidetolerance="10"
     inkscape:pageopacity="0"
     inkscape:pageshadow="2"
     inkscape:window-width="1827"
     inkscape:window-height="1051"
     id="namedview6"
     showgrid="false"
     inkscape:zoom="16.857143"
     inkscape:cx="8"
     inkscape:cy="7"
     inkscape:window-x="84"
     inkscape:window-y="-9"
     inkscape:window-maximized="1"
     inkscape:current-layer="svg4" />
  <path
     fill="#444"
     d="M2 8h13.5q.203 0 .352.148T16 8.5V12h-2v-2H2v2H0V2.5q0-.203.148-.352T.5 2h1q.203 0 .352.148T2 2.5V8zm4.5-2.5q0-.828-.586-1.414T4.5 3.5t-1.414.586T2.5 5.5t.586 1.414T4.5 7.5t1.414-.586T6.5 5.5zm9.5 2V7q0-1.242-.88-2.12T13 4H7.5q-.203 0-.352.148T7 4.5v3h9z"
     id="path2"
     style="fill:#186bb3;fill-opacity:1" />
</svg>
