<?xml version="1.0" encoding="UTF-8" standalone="no"?>
<svg
   xmlns:dc="http://purl.org/dc/elements/1.1/"
   xmlns:cc="http://creativecommons.org/ns#"
   xmlns:rdf="http://www.w3.org/1999/02/22-rdf-syntax-ns#"
   xmlns:svg="http://www.w3.org/2000/svg"
   xmlns="http://www.w3.org/2000/svg"
   xmlns:sodipodi="http://sodipodi.sourceforge.net/DTD/sodipodi-0.dtd"
   xmlns:inkscape="http://www.inkscape.org/namespaces/inkscape"
   width="14"
   height="14"
   viewBox="0 0 14 14"
   version="1.1"
   id="svg4"
   sodipodi:docname="envelope.svg"
   inkscape:version="0.92.3 (2405546, 2018-03-11)">
  <metadata
     id="metadata10">
    <rdf:RDF>
      <cc:Work
         rdf:about="">
        <dc:format>image/svg+xml</dc:format>
        <dc:type
           rdf:resource="http://purl.org/dc/dcmitype/StillImage" />
      </cc:Work>
    </rdf:RDF>
  </metadata>
  <defs
     id="defs8" />
  <sodipodi:namedview
     pagecolor="#ffffff"
     bordercolor="#666666"
     borderopacity="1"
     objecttolerance="10"
     gridtolerance="10"
     guidetolerance="10"
     inkscape:pageopacity="0"
     inkscape:pageshadow="2"
     inkscape:window-width="1827"
     inkscape:window-height="1051"
     id="namedview6"
     showgrid="false"
     inkscape:zoom="16.857143"
     inkscape:cx="7"
     inkscape:cy="7"
     inkscape:window-x="84"
     inkscape:window-y="-9"
     inkscape:window-maximized="1"
     inkscape:current-layer="svg4" />
  <path
     fill="#444"
     d="M14 5.547v6.203q0 .516-.367.883T12.75 13H1.25q-.516 0-.883-.367T0 11.75V5.547q.344.383.79.68Q3.616 8.15 4.67 8.922q.445.328.723.512t.738.375.86.19h.015q.398 0 .86-.19t.737-.376.723-.512q1.328-.96 3.89-2.695.446-.305.782-.68zm0-2.297q0 .617-.383 1.18t-.953.96L9.008 7.93q-.078.055-.332.238t-.422.297-.406.254-.45.21-.39.07h-.016q-.18 0-.39-.07t-.45-.21-.406-.255-.422-.297-.332-.238q-.71-.5-2.047-1.426T1.343 5.39Q.86 5.064.43 4.49T0 3.422q0-.61.323-1.016T1.25 2h11.5q.507 0 .878.368t.37.883z"
     id="path2"
     style="fill:#186bb3;fill-opacity:1" />
</svg>
